<svg width="61" height="39" viewBox="0 0 61 39" fill="none" xmlns="http://www.w3.org/2000/svg">
<path d="M9.22772 3.1916C13.0609 1.71653 17.1697 0.62626 21.4663 0.00630392C21.5046 3.57737e-05 21.5442 0.0040752 21.5797 0.0178636C21.6151 0.031652 21.6447 0.0545073 21.6643 0.0832641C22.1904 0.872105 22.7766 1.90038 23.1875 2.71273C27.7445 2.13176 32.3773 2.13176 36.9343 2.71273C37.392 1.81243 37.908 0.934581 38.4801 0.0832653C38.4995 0.0541545 38.5288 0.0307823 38.5642 0.0162675C38.5996 0.00175279 38.6393 -0.00321429 38.678 0.00202945C42.9722 0.621986 47.081 1.71225 50.9166 3.18946C50.9496 3.20127 50.9776 3.22141 50.9968 3.24718C58.7935 13.0275 60.9305 22.5663 59.8808 31.9854C59.8778 32.0084 59.8695 32.0308 59.8561 32.051C59.8428 32.0712 59.8247 32.0889 59.8031 32.1029C55.2524 34.93 50.1767 37.0836 44.7886 38.4735C44.751 38.4834 44.7108 38.4834 44.6733 38.4734C44.6358 38.4635 44.6026 38.4442 44.5781 38.4179C43.4187 37.0948 42.3912 35.6911 41.5066 34.2215C41.4943 34.2014 41.4872 34.1793 41.4858 34.1566C41.4844 34.134 41.4887 34.1114 41.4985 34.0903C41.5082 34.0692 41.5232 34.0502 41.5423 34.0345C41.5614 34.0187 41.5842 34.0067 41.6093 33.9991C43.2277 33.4791 44.7959 32.8515 46.2993 32.1222C46.3263 32.109 46.3491 32.0903 46.3655 32.0678C46.382 32.0453 46.3917 32.0197 46.3937 31.9932C46.3957 31.9667 46.3899 31.9402 46.3769 31.9161C46.364 31.8919 46.3442 31.8709 46.3193 31.855C46.0037 31.6561 45.688 31.4488 45.3874 31.2414C45.3603 31.2228 45.3277 31.2109 45.2932 31.2071C45.2587 31.2033 45.2236 31.2078 45.1919 31.22C35.3534 34.9911 24.6982 34.9911 14.975 31.22C14.9432 31.2071 14.9078 31.202 14.8728 31.2054C14.8378 31.2088 14.8046 31.2206 14.7771 31.2393C14.4764 31.4488 14.1632 31.6561 13.8451 31.855C13.82 31.8706 13.7999 31.8913 13.7865 31.9152C13.7731 31.9392 13.7669 31.9655 13.7684 31.992C13.7699 32.0185 13.779 32.0442 13.795 32.0669C13.811 32.0897 13.8334 32.1086 13.8601 32.1222C15.3583 32.8576 16.9166 33.4797 18.5526 33.997C18.5777 34.0048 18.6006 34.0171 18.6198 34.033C18.6389 34.0489 18.6538 34.0682 18.6635 34.0894C18.6732 34.1106 18.6775 34.1334 18.6761 34.1562C18.6747 34.179 18.6676 34.2012 18.6553 34.2215C17.7534 35.6901 16.7212 37.0882 15.5863 38.4158C15.5627 38.443 15.5298 38.4634 15.4922 38.4741C15.4545 38.4848 15.4139 38.4854 15.3758 38.4757C9.97844 37.0896 4.89447 34.935 0.33876 32.1029C0.316532 32.0897 0.297881 32.0725 0.284055 32.0526C0.270228 32.0327 0.261547 32.0105 0.25859 31.9875C-0.994081 21.0976 2.35807 11.6358 9.15006 3.25145C9.16671 3.22421 9.19427 3.20297 9.22772 3.1916ZM40.0359 26.2497C42.9973 26.2497 45.44 23.9644 45.44 21.1618C45.44 18.357 43.0449 16.0739 40.0359 16.0739C37.0045 16.0739 34.5843 18.3762 34.6319 21.1618C34.6319 23.9665 37.027 26.2497 40.0359 26.2497V26.2497ZM20.0558 26.2497C23.0196 26.2497 25.4598 23.9644 25.4598 21.1618C25.4598 18.357 23.0672 16.0739 20.0558 16.0739C17.0244 16.0739 14.6042 18.3762 14.6518 21.1618C14.6518 23.9665 17.0218 26.2497 20.0558 26.2497V26.2497Z" fill="#F5F5F5"/>
</svg>
