<svg width="50" height="50" viewBox="0 0 50 50" fill="none" xmlns="http://www.w3.org/2000/svg">
<path fill-rule="evenodd" clip-rule="evenodd" d="M25 -1.86492e-06C38.8125 -8.34552e-07 50 11.4705 50 25.6323C50 36.9747 42.8437 46.5547 32.9062 49.951C31.6562 50.1753 31.1875 49.4063 31.1875 48.7335C31.1875 48.1247 31.2187 46.1062 31.2187 43.9595C37.5 45.145 39.125 42.3895 39.625 40.9477C39.9062 40.2107 41.125 37.9359 42.1875 37.3271C43.0625 36.8465 44.3125 35.661 42.2187 35.629C40.25 35.5969 38.8437 37.4873 38.375 38.2563C36.125 42.1332 32.5312 41.0438 31.0937 40.3709C30.875 38.7048 30.2187 37.5834 29.5 36.9426C35.0625 36.3018 40.875 34.091 40.875 24.2866C40.875 21.4991 39.9062 19.1922 38.3125 17.398C38.5625 16.7571 39.4375 14.1298 38.0625 10.6054C38.0625 10.6054 35.9688 9.93253 31.1875 13.2327C29.1875 12.656 27.0625 12.3676 24.9375 12.3676C22.8125 12.3676 20.6875 12.656 18.6875 13.2327C13.9063 9.90049 11.8125 10.6054 11.8125 10.6054C10.4375 14.1298 11.3125 16.7571 11.5625 17.398C9.96875 19.1922 9 21.4671 9 24.2866C9 34.1231 14.8437 36.3018 20.4062 36.9426C19.5 37.7436 18.7187 39.2816 18.7187 41.6846C18.7187 45.1129 18.75 47.8684 18.75 48.7335C18.75 49.4063 18.2812 50.2074 17.0312 49.951C12.0684 48.2331 7.75588 44.9627 4.7007 40.6003C1.64552 36.2378 0.00149424 31.0029 -7.18787e-07 25.6323C7.32153e-07 11.4705 11.1875 -2.89529e-06 25 -1.86492e-06Z" fill="#F5F5F5"/>
</svg>
