<svg width="54" height="54" viewBox="0 0 54 54" fill="none" xmlns="http://www.w3.org/2000/svg">
<path d="M2 27C2 40.8071 13.1929 52 27 52C40.8071 52 52 40.8071 52 27C52 13.1929 40.8071 2 27 2C13.1929 2 2 13.1929 2 27ZM11.9304 35.9844C11.9 35.4693 12.2079 35.0037 12.7544 34.6507L19.2363 31.2328C20.0044 30.8729 20.8268 31.0774 21.3756 31.6143L22.9411 33.1798C23.0735 33.2764 23.2227 33.34 23.3867 33.3415C25.7106 32.7412 27.8543 30.92 29.3285 29.3132C30.8026 27.7064 32.7985 25.9795 33.2713 23.7377C33.3486 23.4606 33.3763 23.1211 33.192 22.9228L31.3396 21.104C30.8638 20.4762 30.6331 19.5679 31.0223 18.8976L31.0223 18.8671L34.663 12.6995C35.2305 11.7942 36.3273 11.7004 36.9945 12.3486L41.209 16.5965C41.8523 17.2239 42.0686 18.0573 42.0696 18.867C41.9623 22.4482 40.2046 25.8319 38.3983 28.6112C35.0795 33.1733 30.9631 37.358 25.9899 39.9852C23.9045 40.9928 21.2436 42.1764 18.916 42.0635C18.0403 42.0534 17.1824 41.8165 16.618 41.1998L12.37 36.9517C12.0884 36.6208 11.9487 36.2935 11.9304 35.9844Z" stroke="black" stroke-width="3"/>
</svg>
