<svg width="67" height="71" viewBox="0 0 67 71" fill="none" xmlns="http://www.w3.org/2000/svg">
<g filter="url(#filter0_d_1_44)">
<path d="M55.4901 5.92099C54.0007 4.53399 47.9739 0.113182 34.5442 0.0643462C34.5442 0.0643462 18.7115 -0.884326 11.006 6.28794C6.72022 10.6337 5.21336 17.0062 5.05531 24.8964C4.89725 32.7865 4.7093 47.57 18.7866 51.5692L18.7983 51.5692L18.7912 57.6914C18.7912 57.6914 18.6994 60.1712 20.3169 60.6682C22.2627 61.2837 23.4097 59.3963 25.2715 57.366C26.2901 56.2499 27.6951 54.6115 28.7606 53.3649C38.394 54.176 45.7871 52.2956 46.6307 52.0221C48.5755 51.3799 59.5783 49.9475 61.3483 35.1628C63.1882 19.9034 60.4387 10.2715 55.4901 5.92099V5.92099ZM57.1404 34.0508C55.6381 46.3912 46.7207 47.1812 45.0805 47.7164C44.3776 47.9424 37.8749 49.5848 29.7065 49.0573C29.7065 49.0573 23.6185 56.5012 21.7215 58.4366C21.1009 59.0659 20.4211 59.0071 20.4319 57.7613C20.4313 56.9426 20.471 47.5933 20.471 47.5933C20.4593 47.5933 20.4593 47.5933 20.471 47.5933C8.53881 44.2567 9.23234 31.6678 9.35623 25.0828C9.48012 18.4979 10.7065 13.0985 14.3365 9.46507C20.8593 3.46832 34.3014 4.34767 34.3014 4.34767C45.6569 4.38627 51.097 7.84649 52.3635 9.00824C56.5499 12.6356 58.6893 21.3188 57.1404 34.0508V34.0508ZM40.8441 24.4769C40.8917 25.4972 39.3801 25.5696 39.3324 24.5492C39.2015 21.9391 37.9935 20.6706 35.509 20.5301C34.5012 20.4716 34.5938 18.941 35.5899 18.9995C38.8596 19.1749 40.6774 21.0719 40.8441 24.4769ZM43.224 25.8157C43.3373 20.785 40.2289 16.8484 34.334 16.414C33.3379 16.3436 33.4422 14.813 34.4383 14.8834C41.2356 15.3764 44.8603 20.1076 44.7357 25.8501C44.7248 26.8705 43.2013 26.8242 43.224 25.8157V25.8157ZM48.733 27.4013C48.7455 28.4216 47.2221 28.4347 47.2213 27.4143C47.1436 17.7447 40.7763 12.4818 33.0536 12.4285C32.0575 12.4174 32.0564 10.8987 33.0525 10.8979C41.6892 10.9505 48.643 16.9842 48.733 27.4013V27.4013ZM47.4177 39.0415L47.4177 39.0653C46.1538 41.3205 43.7885 43.814 41.3504 43.0209L41.3269 42.9854C38.8537 42.2873 33.0272 39.2545 29.3452 36.2912C27.4457 34.774 25.7099 32.9838 24.3727 31.2645C23.1645 29.7349 21.9443 27.9205 20.7591 25.7384C18.2595 21.1724 17.7072 19.1321 17.7072 19.1321C16.9201 16.6649 19.3675 14.2663 21.6048 12.9832L21.6283 12.9832C22.706 12.4128 23.7374 12.6019 24.4294 13.4437C24.4294 13.4437 25.8839 15.1985 26.5056 16.0642C27.0922 16.8705 27.8783 18.1631 28.289 18.8866C29.0048 20.1793 28.5605 21.4966 27.8578 22.0429L26.4524 23.183C25.738 23.7649 25.8326 24.8445 25.8326 24.8445C25.8326 24.8445 27.9246 32.8278 35.7191 34.8387C35.7191 34.8387 36.7856 34.9328 37.3593 34.2086L38.4832 32.784C39.0217 32.0717 40.3222 31.6198 41.6001 32.3425C43.3235 33.326 45.516 34.8548 46.9702 36.2418C47.791 36.9175 47.9793 37.9495 47.4177 39.0415Z" fill="#F5F5F5"/>
</g>
<defs>
<filter id="filter0_d_1_44" x="0.0210571" y="0.0229492" width="66.9014" height="70.7637" filterUnits="userSpaceOnUse" color-interpolation-filters="sRGB">
<feFlood flood-opacity="0" result="BackgroundImageFix"/>
<feColorMatrix in="SourceAlpha" type="matrix" values="0 0 0 0 0 0 0 0 0 0 0 0 0 0 0 0 0 0 127 0" result="hardAlpha"/>
<feOffset dy="5"/>
<feGaussianBlur stdDeviation="2.5"/>
<feComposite in2="hardAlpha" operator="out"/>
<feColorMatrix type="matrix" values="0 0 0 0 0 0 0 0 0 0 0 0 0 0 0 0 0 0 0.5 0"/>
<feBlend mode="normal" in2="BackgroundImageFix" result="effect1_dropShadow_1_44"/>
<feBlend mode="normal" in="SourceGraphic" in2="effect1_dropShadow_1_44" result="shape"/>
</filter>
</defs>
</svg>
