<svg width="60" height="52" viewBox="0 0 60 52" fill="none" xmlns="http://www.w3.org/2000/svg">
<path d="M58.2845 5.32007L58.1854 5.26722L45.6557 0L32.1321 15.3861L38.354 22.4653C38.1678 25.135 36.841 27.6539 34.6247 29.545C32.4084 31.4362 29.4564 32.5683 26.3276 32.7271L18.0314 27.4181L0 38.9574L6.12148 49.5594L6.173 49.6489L6.23507 49.7333C6.56174 50.1825 7.0177 50.5528 7.55953 50.8091C8.10137 51.0653 8.71105 51.199 9.33054 51.1973H12.5636C18.7931 51.1973 24.9615 50.1503 30.7168 48.1162C36.472 46.082 41.7014 43.1005 46.1062 39.3418C50.5111 35.5832 54.0052 31.121 56.3891 26.2101C58.773 21.2992 60 16.0358 60 10.7203V7.96139C60.002 7.4328 59.8454 6.91257 59.5451 6.45023C59.2448 5.98788 58.8108 5.59882 58.2845 5.32007V5.32007ZM55.3697 10.7203C55.3697 30.8608 36.1669 47.2463 12.5636 47.2463H9.94752L5.85177 40.1516L18.0322 32.3565L24.8137 36.6962H25.5853C30.2042 36.6918 34.6324 35.1242 37.8984 32.3374C41.1644 29.5505 43.0015 25.772 43.0067 21.8308V21.1724L37.9208 15.386L47.0551 4.99313L55.3697 8.4886V10.7203Z" fill="#5B35AB"/>
</svg>
