<svg width="60" height="60" viewBox="0 0 60 60" fill="none" xmlns="http://www.w3.org/2000/svg">
<path opacity="0.55" d="M56.6667 0H3.33333C2.44928 0 1.60143 0.351189 0.976311 0.976311C0.351189 1.60143 0 2.44928 0 3.33333V56.6667C0 57.5507 0.351189 58.3986 0.976311 59.0237C1.60143 59.6488 2.44928 60 3.33333 60H29.05C30.7069 60 32.05 58.6569 32.05 57V39.8C32.05 38.1431 30.7069 36.8 29.05 36.8H27.2567C25.5998 36.8 24.2567 35.4569 24.2567 33.8V30.7167C24.2567 29.0598 25.5998 27.7167 27.2567 27.7167H29.05C30.7069 27.7167 32.05 26.3735 32.05 24.7167V21.05C32.05 13.3 36.7833 9.07667 43.7167 9.07667C45.1471 9.07257 46.5788 9.11622 48.0079 9.20684C49.5405 9.30402 50.7 10.5994 50.7 12.1351V14.5C50.7 16.1569 49.3569 17.5 47.7 17.5H45.9167C42.1567 17.5 41.4233 19.2933 41.4233 21.9167V24.7C41.4233 26.3569 42.7665 27.7 44.4233 27.7H47.0034C48.8119 27.7 50.2093 29.2883 49.9789 31.0822L49.5829 34.1655C49.3907 35.6623 48.1164 36.7833 46.6073 36.7833H44.42C42.7632 36.7833 41.42 38.1265 41.42 39.7833V57C41.42 58.6569 42.7631 60 44.42 60H56.6667C57.5507 60 58.3986 59.6488 59.0237 59.0237C59.6488 58.3986 60 57.5507 60 56.6667V3.33333C60 2.44928 59.6488 1.60143 59.0237 0.976311C58.3986 0.351189 57.5507 0 56.6667 0Z" fill="#0400C5"/>
</svg>
