<svg width="50" height="50" viewBox="0 0 50 50" fill="none" xmlns="http://www.w3.org/2000/svg">
<path d="M25 -1.86492e-06C11.1927 -8.34941e-07 1.14674e-06 11.1927 2.56135e-06 25C3.97596e-06 38.8073 11.1927 50 25 50C38.8073 50 50 38.8073 50 25C50 11.1927 38.8073 -2.8949e-06 25 -1.86492e-06ZM18.8802 35.362L13.8177 35.362L13.8177 19.0703L18.8802 19.0703L18.8802 35.362ZM16.3177 17.0703C14.7188 17.0703 13.6849 15.9375 13.6849 14.5365C13.6849 13.1068 14.75 12.0078 16.3828 12.0078C18.0156 12.0078 19.0156 13.1068 19.0469 14.5365C19.0469 15.9375 18.0156 17.0703 16.3177 17.0703ZM37.3698 35.362L32.3073 35.362L32.3073 26.3333C32.3073 24.2318 31.5729 22.8047 29.7422 22.8047C28.3438 22.8047 27.513 23.7708 27.1458 24.7005C27.0104 25.0312 26.9766 25.5 26.9766 25.9661L26.9766 35.3594L21.9115 35.3594L21.9115 24.2656C21.9115 22.2318 21.8464 20.5312 21.7786 19.0677L26.1771 19.0677L26.4089 21.3307L26.5104 21.3307C27.1771 20.2682 28.8099 18.7005 31.5417 18.7005C34.8724 18.7005 37.3698 20.9323 37.3698 25.7292L37.3698 35.362V35.362Z" fill="#F5F5F5"/>
</svg>
