<svg width="224" height="196" viewBox="0 0 224 196" fill="none" xmlns="http://www.w3.org/2000/svg">
<path d="M50.846 93.9761L43.0401 89.7653C39.2159 96.2739 34.3838 102.286 28.4866 107.775C26.4279 109.692 24.2263 111.422 21.8817 112.967L22.0247 113.153C31.8892 109.709 39.4805 105.512 44.7558 100.601L45.9567 99.4836C48.3156 97.2879 49.931 95.4654 50.846 93.9761Z" fill="white"/>
<path d="M50.846 93.9761L51.6336 94.5509L52.2434 93.5582L51.2771 93.037L50.846 93.9761ZM43.0401 89.7653L43.4712 88.8262L42.7082 88.4146L42.2415 89.2088L43.0401 89.7653ZM21.8817 112.967L21.4004 112.073L20.4297 112.713L21.1498 113.648L21.8817 112.967ZM22.0247 113.153L21.2927 113.834L21.6968 114.359L22.3009 114.148L22.0247 113.153ZM51.2771 93.037L43.4712 88.8262L42.6091 90.7045L50.4149 94.9153L51.2771 93.037ZM42.2415 89.2088C38.4726 95.6235 33.7055 101.557 27.8766 106.983L29.0966 108.568C35.0621 103.015 39.9593 96.9244 43.8387 90.3218L42.2415 89.2088ZM27.8766 106.983C25.8588 108.861 23.7003 110.558 21.4004 112.073L22.3631 113.861C24.7523 112.286 26.9971 110.522 29.0966 108.568L27.8766 106.983ZM21.1498 113.648L21.2927 113.834L22.7567 112.471L22.6137 112.286L21.1498 113.648ZM22.3009 114.148C32.2327 110.681 39.9563 106.429 45.3658 101.394L44.1458 99.8091C39.0047 104.595 31.5456 108.737 21.7485 112.157L22.3009 114.148ZM45.3658 101.394L46.5667 100.276L45.3467 98.6912L44.1458 99.8091L45.3658 101.394ZM46.5667 100.276C48.9454 98.0619 50.6428 96.1636 51.6336 94.5509L50.0584 93.4014C49.2193 94.7672 47.6858 96.5139 45.3467 98.6912L46.5667 100.276Z" fill="black"/>
<path d="M55.1418 110.469C53.8233 114.985 51.9549 119.063 49.4743 122.69L48.3497 124.334C47.0267 126.269 45.5534 128.009 43.963 129.507L48.1742 133.908L48.2658 133.981L48.4236 133.958L50.8306 130.645L51.5582 129.581C53.7743 126.34 55.1858 122.309 55.8055 117.573C57.7336 117.652 59.4595 118.131 60.9372 118.972C61.4586 122.04 60.4936 125.418 58.013 129.045L56.8222 130.787C55.8961 132.141 54.4394 133.857 52.4356 135.959C52.3033 136.152 53.6171 137.647 56.4228 140.481L56.5144 140.554L56.6722 140.53L59.0792 137.217L59.4099 136.734C62.304 132.502 63.5894 128.034 63.2954 123.391C65.7071 123.333 67.4138 123.684 68.3761 124.451L68.4678 124.524C69.4781 128.43 68.5692 132.45 65.7578 136.561L64.3687 138.593C63.6575 139.633 62.5049 140.956 60.9336 142.581C60.8179 142.75 62.1253 144.203 64.8953 146.933C65.1244 147.115 66.155 145.919 67.9741 143.259C70.4713 139.607 71.6971 135.951 71.6516 132.291C71.2739 128.702 70.6013 126.373 69.6337 125.303L69.6999 125.207L69.7915 125.28L70.2753 125.815L70.3669 125.888C70.4827 125.718 70.4507 124.834 70.3001 123.294C68.5129 121.87 66.1227 121.535 63.1169 122.203C62.7742 120.996 62.4622 120.262 62.2204 119.994L62.2865 119.898L62.4698 120.044L62.6021 119.85L62.3774 117.28L61.2625 116.84C59.1242 116.033 57.3539 115.93 55.9681 116.507C56.0389 114.695 55.8246 112.731 55.3251 110.615L55.1418 110.469Z" fill="white"/>
<path d="M55.1418 110.469L55.7063 109.643L54.6189 108.777L54.2208 110.14L55.1418 110.469ZM43.963 129.507L43.3179 128.723L42.5438 129.452L43.2974 130.24L43.963 129.507ZM48.1742 133.908L47.5086 134.641L47.5563 134.691L47.6097 134.734L48.1742 133.908ZM48.2658 133.981L47.7013 134.807L48.0253 135.065L48.4197 135.006L48.2658 133.981ZM48.4236 133.958L48.5775 134.982L48.9561 134.925L49.1893 134.604L48.4236 133.958ZM50.8306 130.645L51.5962 131.292L51.6046 131.28L51.6127 131.268L50.8306 130.645ZM55.8055 117.573L55.8218 116.539L54.9685 116.504L54.8503 117.408L55.8055 117.573ZM60.9372 118.972L61.886 118.808L61.8002 118.303L61.3751 118.061L60.9372 118.972ZM52.4356 135.959L51.7536 135.212L51.6988 135.269L51.6535 135.336L52.4356 135.959ZM56.4228 140.481L55.7695 141.226L55.8118 141.269L55.8583 141.306L56.4228 140.481ZM56.5144 140.554L55.9499 141.379L56.2739 141.637L56.6683 141.578L56.5144 140.554ZM56.6722 140.53L56.8261 141.554L57.2047 141.498L57.4379 141.177L56.6722 140.53ZM59.0792 137.217L59.8448 137.864L59.8532 137.852L59.8612 137.841L59.0792 137.217ZM63.2954 123.391L63.2529 122.357L62.2661 122.381L62.3331 123.439L63.2954 123.391ZM68.4678 124.524L69.3968 124.267L69.3061 123.917L69.0323 123.698L68.4678 124.524ZM60.9336 142.581L60.2564 141.829L60.1988 141.888L60.1515 141.957L60.9336 142.581ZM64.8953 146.933L64.2509 147.687L64.2892 147.725L64.3308 147.758L64.8953 146.933ZM71.6516 132.291L72.616 132.3L72.6154 132.248L72.61 132.197L71.6516 132.291ZM69.6337 125.303L68.8517 124.68L68.3735 125.38L68.9484 126.015L69.6337 125.303ZM69.6999 125.207L70.2644 124.381L69.4823 123.758L68.9178 124.584L69.6999 125.207ZM69.7915 125.28L70.4769 124.568L70.4208 124.506L70.356 124.454L69.7915 125.28ZM70.2753 125.815L69.5899 126.526L69.6461 126.589L69.7108 126.64L70.2753 125.815ZM70.3669 125.888L69.8025 126.713L70.5846 127.336L71.149 126.511L70.3669 125.888ZM70.3001 123.294L71.2593 123.208L71.2142 122.747L70.8645 122.468L70.3001 123.294ZM63.1169 122.203L62.1947 122.485L62.4575 123.41L63.3322 123.216L63.1169 122.203ZM62.2204 119.994L61.4383 119.371L60.9601 120.07L61.535 120.706L62.2204 119.994ZM62.2865 119.898L62.851 119.072L62.0689 118.449L61.5044 119.274L62.2865 119.898ZM62.4698 120.044L61.9053 120.869L62.6874 121.492L63.2519 120.667L62.4698 120.044ZM62.6021 119.85L63.3842 120.473L63.5963 120.163L63.5624 119.776L62.6021 119.85ZM62.3774 117.28L63.3377 117.205L63.2797 116.542L62.6934 116.31L62.3774 117.28ZM61.2625 116.84L61.5784 115.87L61.5718 115.868L61.5652 115.865L61.2625 116.84ZM55.9681 116.507L55.0045 116.441L54.9416 118.052L56.334 117.472L55.9681 116.507ZM55.3251 110.615L56.2599 110.381L56.1735 110.015L55.8896 109.789L55.3251 110.615ZM54.2208 110.14C52.9303 114.56 51.1063 118.537 48.6922 122.067L50.2564 123.313C52.8035 119.589 54.7163 115.409 56.0628 110.797L54.2208 110.14ZM48.6922 122.067L47.5676 123.711L49.1318 124.958L50.2564 123.313L48.6922 122.067ZM47.5676 123.711C46.2819 125.591 44.854 127.277 43.3179 128.723L44.6082 130.29C46.2529 128.742 47.7714 126.947 49.1318 124.958L47.5676 123.711ZM43.2974 130.24L47.5086 134.641L48.8398 133.175L44.6286 128.774L43.2974 130.24ZM47.6097 134.734L47.7013 134.807L48.8303 133.156L48.7387 133.083L47.6097 134.734ZM48.4197 135.006L48.5775 134.982L48.2698 132.933L48.112 132.957L48.4197 135.006ZM49.1893 134.604L51.5962 131.292L50.0649 129.999L47.658 133.311L49.1893 134.604ZM51.6127 131.268L52.3403 130.204L50.7761 128.958L50.0485 130.022L51.6127 131.268ZM52.3403 130.204C54.6654 126.804 56.1237 122.607 56.7608 117.738L54.8503 117.408C54.2479 122.012 52.8832 125.877 50.7761 128.958L52.3403 130.204ZM55.7893 118.606C57.5901 118.68 59.1686 119.126 60.4994 119.883L61.3751 118.061C59.7504 117.136 57.8772 116.624 55.8218 116.539L55.7893 118.606ZM59.9885 119.136C60.4451 121.823 59.626 124.92 57.2309 128.422L58.795 129.669C61.3613 125.916 62.4722 122.257 61.886 118.808L59.9885 119.136ZM57.2309 128.422L56.0401 130.163L57.6043 131.41L58.795 129.669L57.2309 128.422ZM56.0401 130.163C55.1591 131.452 53.745 133.123 51.7536 135.212L53.1176 136.706C55.1338 134.591 56.6331 132.83 57.6043 131.41L56.0401 130.163ZM51.6535 135.336C51.4409 135.647 51.4512 135.976 51.4734 136.139C51.4963 136.306 51.5493 136.441 51.5841 136.519C51.6559 136.682 51.7548 136.835 51.8418 136.959C52.0246 137.219 52.2952 137.548 52.633 137.931C53.3163 138.707 54.3633 139.806 55.7695 141.226L57.076 139.735C55.6765 138.322 54.6638 137.257 54.0218 136.528C53.697 136.159 53.4886 135.901 53.3746 135.738C53.3133 135.651 53.3093 135.633 53.3236 135.665C53.3296 135.679 53.3652 135.759 53.382 135.882C53.3981 136 53.4137 136.295 53.2177 136.582L51.6535 135.336ZM55.8583 141.306L55.9499 141.379L57.0789 139.728L56.9873 139.655L55.8583 141.306ZM56.6683 141.578L56.8261 141.554L56.5184 139.506L56.3606 139.529L56.6683 141.578ZM57.4379 141.177L59.8448 137.864L58.3135 136.571L55.9066 139.884L57.4379 141.177ZM59.8612 137.841L60.192 137.357L58.6278 136.111L58.2971 136.594L59.8612 137.841ZM60.192 137.357C63.2004 132.958 64.5689 128.257 64.2577 123.343L62.3331 123.439C62.6099 127.811 61.4077 132.046 58.6278 136.111L60.192 137.357ZM63.3379 124.425C65.7233 124.368 67.1346 124.737 67.8116 125.276L68.9406 123.625C67.6929 122.631 65.6909 122.298 63.2529 122.357L63.3379 124.425ZM67.8116 125.276L67.9033 125.349L69.0323 123.698L68.9406 123.625L67.8116 125.276ZM67.5387 124.78C68.4489 128.299 67.668 132.001 64.9757 135.938L66.5399 137.185C69.4705 132.899 70.5073 128.561 69.3968 124.267L67.5387 124.78ZM64.9757 135.938L63.5866 137.97L65.1508 139.216L66.5399 137.185L64.9757 135.938ZM63.5866 137.97C62.9248 138.937 61.8199 140.212 60.2564 141.829L61.6108 143.332C63.1899 141.7 64.3903 140.328 65.1508 139.216L63.5866 137.97ZM60.1515 141.957C59.9153 142.303 59.9563 142.668 59.9834 142.812C60.0138 142.973 60.0709 143.1 60.1056 143.171C60.1788 143.32 60.2764 143.462 60.3629 143.579C60.5448 143.826 60.8126 144.14 61.1482 144.509C61.8264 145.257 62.8619 146.318 64.2509 147.687L65.5397 146.178C64.1587 144.817 63.1555 143.787 62.5164 143.083C62.1934 142.727 61.9828 142.476 61.8656 142.317C61.8025 142.232 61.7953 142.211 61.8084 142.238C61.813 142.247 61.8511 142.323 61.8738 142.443C61.8931 142.545 61.9375 142.879 61.7157 143.204L60.1515 141.957ZM64.3308 147.758C64.7529 148.095 65.1943 147.975 65.3588 147.912C65.5467 147.84 65.7027 147.727 65.8109 147.638C66.0386 147.453 66.2922 147.182 66.5599 146.865C67.1061 146.217 67.841 145.22 68.7562 143.882L67.192 142.636C66.2881 143.958 65.5981 144.889 65.117 145.459C64.871 145.75 64.7103 145.911 64.6235 145.981C64.5745 146.021 64.5982 145.992 64.6787 145.961C64.736 145.939 65.095 145.817 65.4598 146.107L64.3308 147.758ZM68.7562 143.882C71.3439 140.098 72.6649 136.232 72.616 132.3L70.6871 132.283C70.7293 135.671 69.5987 139.116 67.192 142.636L68.7562 143.882ZM72.61 132.197C72.4172 130.366 72.1456 128.816 71.7847 127.566C71.4286 126.333 70.9601 125.3 70.3191 124.592L68.9484 126.015C69.2749 126.376 69.6265 127.043 69.943 128.139C70.2547 129.219 70.5082 130.628 70.6931 132.385L72.61 132.197ZM70.4158 125.927L70.482 125.83L68.9178 124.584L68.8517 124.68L70.4158 125.927ZM69.1354 126.032L69.2271 126.105L70.356 124.454L70.2644 124.381L69.1354 126.032ZM69.1062 125.992L69.5899 126.526L70.9607 125.103L70.4769 124.568L69.1062 125.992ZM69.7108 126.64L69.8025 126.713L70.9314 125.062L70.8398 124.989L69.7108 126.64ZM71.149 126.511C71.2705 126.333 71.3191 126.151 71.3406 126.057C71.3659 125.946 71.3793 125.837 71.3872 125.742C71.4031 125.551 71.4041 125.33 71.3975 125.095C71.384 124.621 71.3353 123.985 71.2593 123.208L69.3408 123.38C69.4154 124.143 69.4581 124.718 69.4693 125.114C69.475 125.314 69.4718 125.442 69.4658 125.513C69.4628 125.549 69.4609 125.549 69.4663 125.525C69.468 125.517 69.4924 125.4 69.5849 125.265L71.149 126.511ZM70.8645 122.468C68.766 120.796 66.0533 120.489 62.9017 121.19L63.3322 123.216C66.1922 122.58 68.2597 122.943 69.7356 124.119L70.8645 122.468ZM64.0391 121.921C63.8609 121.294 63.6843 120.766 63.5122 120.347C63.3529 119.959 63.1568 119.56 62.9057 119.283L61.535 120.706C61.5258 120.696 61.6067 120.798 61.7494 121.146C61.8795 121.463 62.0303 121.906 62.1947 122.485L64.0391 121.921ZM63.0025 120.617L63.0686 120.521L61.5044 119.274L61.4383 119.371L63.0025 120.617ZM61.722 120.723L61.9053 120.869L63.0343 119.218L62.851 119.072L61.722 120.723ZM63.2519 120.667L63.3842 120.473L61.82 119.227L61.6877 119.42L63.2519 120.667ZM63.5624 119.776L63.3377 117.205L61.4171 117.355L61.6418 119.925L63.5624 119.776ZM62.6934 116.31L61.5784 115.87L60.9465 117.81L62.0615 118.25L62.6934 116.31ZM61.5652 115.865C59.3096 115.014 57.2823 114.842 55.6023 115.542L56.334 117.472C57.4255 117.018 58.9388 117.052 60.9597 117.815L61.5652 115.865ZM56.9318 116.572C57.0072 114.643 56.778 112.577 56.2599 110.381L54.3903 110.848C54.8711 112.885 55.0706 114.748 55.0045 116.441L56.9318 116.572ZM55.8896 109.789L55.7063 109.643L54.5773 111.294L54.7606 111.44L55.8896 109.789Z" fill="black"/>
<path d="M89.9255 119.694C88.7082 123.936 88.2047 128.517 88.3564 133.436L88.4989 134.254C88.7355 141.926 89.7345 147.709 91.4977 151.66L89.4068 152.286L89.414 152.52L89.7655 152.513C92.929 152.453 96.2614 151.217 99.7334 148.806C103.659 144.951 105.588 140.959 105.461 136.859L105.429 135.805C105.34 132.935 104.133 130.849 101.836 129.545L93.8415 132.628L93.7244 132.63C94.3514 128.253 95.1154 124.517 95.9588 121.453L95.9552 121.336C92.5212 120.23 90.5406 119.682 90.0427 119.692L89.9255 119.694ZM93.6361 133.57C95.0421 133.543 96.3967 133.751 97.6414 134.196C99.7811 135.151 100.888 136.83 100.964 139.289L100.982 139.875C101.002 140.519 100.743 141.638 100.263 143.17C98.5571 146.778 95.8859 149.495 92.1899 151.295L92.3948 142.735C92.8518 137.599 93.2558 134.544 93.6361 133.57Z" fill="white"/>
<path d="M89.9255 119.694L89.8947 118.694L89.1645 118.708L88.9637 119.408L89.9255 119.694ZM88.3564 133.436L87.3566 133.456L87.3588 133.527L87.371 133.597L88.3564 133.436ZM88.4989 134.254L89.4987 134.235L89.4965 134.164L89.4843 134.094L88.4989 134.254ZM91.4977 151.66L91.795 152.618L92.8718 152.295L92.4105 151.261L91.4977 151.66ZM89.4068 152.286L89.1095 151.328L88.3835 151.545L88.407 152.305L89.4068 152.286ZM89.414 152.52L88.4142 152.539L88.445 153.539L89.4448 153.519L89.414 152.52ZM99.7334 148.806L100.311 149.629L100.379 149.582L100.439 149.523L99.7334 148.806ZM101.836 129.545L102.322 128.677L101.907 128.442L101.466 128.612L101.836 129.545ZM93.8415 132.628L93.8724 133.628L94.0479 133.624L94.2111 133.561L93.8415 132.628ZM93.7244 132.63L92.7341 132.477L92.5658 133.653L93.7552 133.63L93.7244 132.63ZM95.9588 121.453L96.9235 121.729L96.9632 121.585L96.9586 121.434L95.9588 121.453ZM95.9552 121.336L96.955 121.317L96.933 120.605L96.252 120.385L95.9552 121.336ZM93.6361 133.57L93.6053 132.57L92.9434 132.583L92.7037 133.197L93.6361 133.57ZM97.6414 134.196L98.0405 133.284L98.0051 133.268L97.9685 133.255L97.6414 134.196ZM100.263 143.17L101.168 143.606L101.197 143.544L101.218 143.479L100.263 143.17ZM92.1899 151.295L91.1898 151.259L91.1501 152.918L92.6364 152.194L92.1899 151.295ZM92.3948 142.735L91.3984 142.635L91.3955 142.667L91.3948 142.7L92.3948 142.735ZM88.9637 119.408C87.7139 123.764 87.2022 128.449 87.3566 133.456L89.3562 133.417C89.2072 128.585 89.7024 124.109 90.8873 119.98L88.9637 119.408ZM87.371 133.597L87.5135 134.414L89.4843 134.094L89.3418 133.276L87.371 133.597ZM87.4991 134.273C87.7371 141.991 88.7419 147.928 90.5849 152.058L92.4105 151.261C90.7271 147.489 89.7339 141.862 89.4987 134.235L87.4991 134.273ZM91.2004 150.702L89.1095 151.328L89.7041 153.244L91.795 152.618L91.2004 150.702ZM88.407 152.305L88.4142 152.539L90.4138 152.501L90.4066 152.267L88.407 152.305ZM89.4448 153.519L89.7963 153.513L89.7347 151.514L89.3832 151.52L89.4448 153.519ZM89.7963 153.513C93.2118 153.447 96.7311 152.115 100.311 149.629L99.1563 147.983C95.7917 150.319 92.6461 151.458 89.7347 151.514L89.7963 153.513ZM100.439 149.523C104.487 145.548 106.599 141.306 106.461 136.84L104.461 136.878C104.576 140.612 102.831 144.354 99.0281 148.089L100.439 149.523ZM106.461 136.84L106.428 135.786L104.429 135.824L104.461 136.878L106.461 136.84ZM106.428 135.786C106.33 132.599 104.956 130.172 102.322 128.677L101.349 130.413C103.309 131.525 104.35 133.271 104.429 135.824L106.428 135.786ZM101.466 128.612L93.472 131.695L94.2111 133.561L102.205 130.478L101.466 128.612ZM93.8107 131.629L93.6935 131.631L93.7552 133.63L93.8724 133.628L93.8107 131.629ZM94.7146 132.783C95.3371 128.437 96.0935 124.744 96.9235 121.729L94.9941 121.178C94.1373 124.29 93.3657 128.068 92.7341 132.477L94.7146 132.783ZM96.9586 121.434L96.955 121.317L94.9554 121.356L94.959 121.473L96.9586 121.434ZM96.252 120.385C94.5298 119.83 93.1613 119.412 92.1554 119.133C91.6532 118.993 91.2313 118.885 90.8956 118.812C90.5912 118.746 90.268 118.687 90.0118 118.692L90.0735 120.691C90.0664 120.691 90.1774 120.697 90.4918 120.766C90.7748 120.827 91.156 120.924 91.6405 121.059C92.6079 121.327 93.9466 121.736 95.6584 122.288L96.252 120.385ZM90.0118 118.692L89.8947 118.694L89.9563 120.693L90.0735 120.691L90.0118 118.692ZM93.6669 134.569C94.9623 134.544 96.1946 134.737 97.3143 135.137L97.9685 133.255C96.5989 132.766 95.1219 132.541 93.6053 132.57L93.6669 134.569ZM97.2424 135.108C98.1651 135.52 98.8114 136.062 99.2412 136.719C99.6728 137.378 99.9306 138.223 99.9641 139.308L101.964 139.27C101.921 137.896 101.588 136.671 100.912 135.638C100.234 134.603 99.2575 133.827 98.0405 133.284L97.2424 135.108ZM99.9641 139.308L99.9821 139.894L101.982 139.856L101.964 139.27L99.9641 139.308ZM99.9821 139.894C99.996 140.344 99.7959 141.305 99.3081 142.862L101.218 143.479C101.691 141.971 102.008 140.695 101.982 139.856L99.9821 139.894ZM99.3577 142.735C97.7482 146.138 95.2393 148.693 91.7433 150.395L92.6364 152.194C96.5324 150.298 99.366 147.417 101.168 143.606L99.3577 142.735ZM93.1899 151.33L93.3948 142.771L91.3948 142.7L91.1898 151.259L93.1899 151.33ZM93.3911 142.835C93.6192 140.273 93.8329 138.242 94.0356 136.736C94.244 135.188 94.4287 134.301 94.5686 133.942L92.7037 133.197C92.4632 133.813 92.2558 134.94 92.0528 136.447C91.8442 137.996 91.6274 140.061 91.3984 142.635L93.3911 142.835Z" fill="black"/>
<path d="M117.988 116.648L114.783 119.846C116.743 122.979 117.83 124.987 118.043 125.87L118.156 125.839C119.69 123.955 120.237 121.98 119.743 119.93L119.716 119.816C119.468 118.79 118.883 117.737 117.988 116.648ZM121.895 127.355L117.17 130.244C119.2 133.419 120.899 137.718 122.218 143.186L123.616 149.484L123.841 149.421C125.467 144.17 125.778 139.465 124.776 135.307L124.693 134.965C123.828 131.376 122.886 128.842 121.895 127.355Z" fill="white"/>
<path d="M117.988 116.648L118.757 115.989L118.08 115.165L117.304 115.939L117.988 116.648ZM114.783 119.846L114.099 119.137L113.514 119.721L113.942 120.405L114.783 119.846ZM118.043 125.87L117.079 126.137L117.314 127.109L118.277 126.842L118.043 125.87ZM118.156 125.839L118.39 126.811L118.704 126.724L118.912 126.468L118.156 125.839ZM121.895 127.355L122.721 126.772L122.208 126.002L121.402 126.495L121.895 127.355ZM117.17 130.244L116.677 129.385L115.774 129.937L116.334 130.811L117.17 130.244ZM122.218 143.186L123.186 142.937L123.184 142.928L123.182 142.919L122.218 143.186ZM123.616 149.484L122.648 149.733L122.869 150.728L123.85 150.456L123.616 149.484ZM123.841 149.421L124.076 150.393L124.618 150.243L124.787 149.697L123.841 149.421ZM117.304 115.939L114.099 119.137L115.467 120.555L118.672 117.358L117.304 115.939ZM113.942 120.405C114.917 121.963 115.667 123.229 116.196 124.208C116.742 125.217 117.007 125.837 117.079 126.137L119.007 125.603C118.866 125.021 118.481 124.195 117.941 123.196C117.384 122.167 116.61 120.862 115.625 119.287L113.942 120.405ZM118.277 126.842L118.39 126.811L117.921 124.867L117.808 124.898L118.277 126.842ZM118.912 126.468C120.613 124.379 121.289 122.078 120.707 119.662L118.779 120.197C119.186 121.883 118.766 123.531 117.399 125.21L118.912 126.468ZM120.707 119.662L120.679 119.549L118.752 120.083L118.779 120.197L120.707 119.662ZM120.679 119.549C120.385 118.33 119.708 117.146 118.757 115.989L117.219 117.308C118.058 118.329 118.551 119.251 118.752 120.083L120.679 119.549ZM121.402 126.495L116.677 129.385L117.663 131.104L122.387 128.214L121.402 126.495ZM116.334 130.811C118.287 133.865 119.952 138.051 121.254 143.454L123.182 142.919C121.847 137.385 120.114 132.973 118.006 129.677L116.334 130.811ZM121.25 143.436L122.648 149.733L124.583 149.234L123.186 142.937L121.25 143.436ZM123.85 150.456L124.076 150.393L123.607 148.449L123.381 148.511L123.85 150.456ZM124.787 149.697C126.453 144.315 126.795 139.417 125.739 135.039L123.812 135.574C124.762 139.512 124.481 144.024 122.896 149.144L124.787 149.697ZM125.739 135.039L125.657 134.698L123.73 135.232L123.812 135.574L125.739 135.039ZM125.657 134.698C124.786 131.084 123.811 128.409 122.721 126.772L121.068 127.937C121.96 129.275 122.87 131.668 123.73 135.232L125.657 134.698Z" fill="black"/>
<path d="M146.965 111.425L146.365 111.985C143.602 114.564 142.631 117.229 143.473 119.96L143.387 120.04C142.55 119.463 141.248 118.96 139.5 118.554L139.414 118.633C138.405 122.093 137.933 123.933 137.979 124.13C143.027 125.851 147.323 128.875 150.823 133.241C152.114 134.992 153.174 136.641 154.059 138.213L154.23 138.053C153.446 132.59 151.634 128.087 148.812 124.567C147.64 123.104 146.063 121.698 144.084 120.349C143.974 120.212 144.335 119.635 145.173 118.532C146.244 117.533 147.755 117.082 149.748 117.139L149.834 117.059L147.124 111.436L146.965 111.425Z" fill="white"/>
<path d="M146.965 111.425L147.039 110.391L146.642 110.362L146.339 110.645L146.965 111.425ZM143.473 119.96L144.098 120.74L144.589 120.282L144.386 119.624L143.473 119.96ZM143.387 120.04L142.862 120.915L143.465 121.331L144.012 120.82L143.387 120.04ZM139.5 118.554L139.712 117.54L139.241 117.431L138.874 117.773L139.5 118.554ZM139.414 118.633L138.789 117.853L138.579 118.049L138.496 118.333L139.414 118.633ZM137.979 124.13L137.045 124.391L137.174 124.946L137.679 125.118L137.979 124.13ZM150.823 133.241L151.579 132.591L151.566 132.574L151.554 132.558L150.823 133.241ZM154.059 138.213L153.235 138.757L153.822 139.798L154.685 138.993L154.059 138.213ZM154.23 138.053L154.856 138.833L155.263 138.453L155.181 137.883L154.23 138.053ZM144.084 120.349L143.353 121.031L143.444 121.146L143.563 121.227L144.084 120.349ZM145.173 118.532L144.548 117.752L144.485 117.811L144.432 117.88L145.173 118.532ZM149.748 117.139L149.712 118.176L150.087 118.186L150.373 117.92L149.748 117.139ZM149.834 117.059L150.459 117.84L151.038 117.299L150.688 116.574L149.834 117.059ZM147.124 111.436L147.978 110.951L147.733 110.441L147.198 110.402L147.124 111.436ZM146.339 110.645L145.74 111.204L146.99 112.765L147.59 112.205L146.339 110.645ZM145.74 111.204C144.281 112.566 143.23 114.01 142.672 115.547C142.106 117.106 142.069 118.704 142.559 120.296L144.386 119.624C144.035 118.485 144.063 117.385 144.463 116.284C144.87 115.161 145.686 113.983 146.99 112.765L145.74 111.204ZM142.847 119.18L142.761 119.26L144.012 120.82L144.098 120.74L142.847 119.18ZM143.912 119.165C142.933 118.491 141.502 117.956 139.712 117.54L139.287 119.567C140.994 119.963 142.166 120.435 142.862 120.915L143.912 119.165ZM138.874 117.773L138.789 117.853L140.039 119.414L140.125 119.334L138.874 117.773ZM138.496 118.333C137.991 120.066 137.617 121.403 137.375 122.335C137.254 122.8 137.163 123.176 137.104 123.455C137.075 123.593 137.05 123.723 137.034 123.837C137.027 123.893 137.019 123.961 137.015 124.032C137.013 124.08 137.007 124.225 137.045 124.391L138.912 123.868C138.931 123.951 138.936 124.016 138.937 124.046C138.938 124.08 138.938 124.104 138.937 124.115C138.936 124.136 138.935 124.141 138.937 124.121C138.943 124.082 138.955 124.01 138.98 123.893C139.028 123.664 139.109 123.327 139.227 122.875C139.462 121.973 139.828 120.66 140.331 118.934L138.496 118.333ZM137.679 125.118C142.562 126.783 146.707 129.701 150.092 133.923L151.554 132.558C147.939 128.048 143.493 124.919 138.278 123.141L137.679 125.118ZM150.067 133.891C151.335 135.611 152.372 137.225 153.235 138.757L154.883 137.668C153.976 136.058 152.894 134.374 151.579 132.591L150.067 133.891ZM154.685 138.993L154.856 138.833L153.605 137.272L153.434 137.432L154.685 138.993ZM155.181 137.883C154.375 132.265 152.501 127.574 149.543 123.885L148.081 125.249C150.767 128.6 152.518 132.915 153.28 138.222L155.181 137.883ZM149.543 123.885C148.295 122.326 146.64 120.858 144.604 119.471L143.563 121.227C145.487 122.537 146.985 123.881 148.081 125.249L149.543 123.885ZM144.815 119.667C145.006 119.906 145.03 120.167 145.026 120.301C145.022 120.427 144.993 120.508 144.99 120.517C144.983 120.536 144.997 120.494 145.077 120.363C145.227 120.115 145.498 119.733 145.915 119.184L144.432 117.88C144.011 118.434 143.682 118.892 143.469 119.242C143.367 119.411 143.259 119.607 143.189 119.808C143.155 119.907 143.109 120.064 143.103 120.252C143.097 120.448 143.133 120.758 143.353 121.031L144.815 119.667ZM145.799 119.313C146.618 118.547 147.854 118.122 149.712 118.176L149.784 116.103C147.656 116.042 145.87 116.518 144.548 117.752L145.799 119.313ZM150.373 117.92L150.459 117.84L149.208 116.279L149.122 116.359L150.373 117.92ZM150.688 116.574L147.978 110.951L146.269 111.922L148.979 117.545L150.688 116.574ZM147.198 110.402L147.039 110.391L146.89 112.459L147.049 112.471L147.198 110.402Z" fill="black"/>
<path d="M152.003 97.062L153.542 99.1729C158.561 104.663 164.166 109.012 170.305 112.192L170.989 112.678L171.449 112.784C174.155 114.186 176.354 115.128 178.016 115.529L179.239 109.068C177.203 108.736 174.127 107.865 169.961 106.495C169.095 104.667 168.489 102.974 168.139 101.347C170.324 102.479 173.102 102.998 176.448 102.892C178.476 103.088 180.674 102.551 183.005 101.295L183.048 101.187C181.625 98.4785 180.507 96.6511 179.698 95.7721L179.227 96.3164C175.567 99.1507 171.783 100.344 167.849 99.8829L167.745 99.829C166.975 96.6709 166.832 93.6735 167.353 90.823C166.989 90.6343 165.05 91.0752 161.536 92.1454C161.459 92.3356 161.559 92.9457 161.798 93.9894C163.704 99.4767 165.56 103.296 167.376 105.419L167.332 105.528L161.79 103.051C159.032 101.623 155.808 99.5584 152.091 96.8447L152.003 97.062Z" fill="white"/>
<path d="M152.003 97.062L151.116 96.6021L150.89 97.162L151.259 97.6685L152.003 97.062ZM153.542 99.1729L152.797 99.7793L152.834 99.8293L152.875 99.8747L153.542 99.1729ZM170.305 112.192L170.801 111.339L170.742 111.297L170.679 111.264L170.305 112.192ZM170.989 112.678L170.493 113.531L170.655 113.645L170.842 113.689L170.989 112.678ZM171.449 112.784L171.824 111.857L171.714 111.801L171.597 111.773L171.449 112.784ZM178.016 115.529L177.861 116.538L178.778 116.76L178.961 115.795L178.016 115.529ZM179.239 109.068L180.184 109.333L180.395 108.219L179.326 108.044L179.239 109.068ZM169.961 106.495L169.108 106.919L169.31 107.345L169.732 107.484L169.961 106.495ZM168.139 101.347L168.513 100.42L166.769 99.5163L167.201 101.52L168.139 101.347ZM176.448 102.892L176.475 101.861L176.417 101.855L176.36 101.857L176.448 102.892ZM183.005 101.295L183.478 102.226L183.765 102.072L183.893 101.755L183.005 101.295ZM183.048 101.187L183.936 101.647L184.123 101.183L183.881 100.721L183.048 101.187ZM179.698 95.7721L180.362 95.0676L179.635 94.2783L178.974 95.0425L179.698 95.7721ZM179.227 96.3164L179.821 97.1688L179.891 97.1142L179.951 97.046L179.227 96.3164ZM167.849 99.8829L167.475 100.81L167.632 100.892L167.803 100.912L167.849 99.8829ZM167.745 99.829L166.814 100.033L166.935 100.531L167.371 100.756L167.745 99.829ZM167.353 90.823L168.299 91.082L168.448 90.2688L167.727 89.8956L167.353 90.823ZM161.536 92.1454L161.221 91.1481L160.815 91.2719L160.648 91.6855L161.536 92.1454ZM161.798 93.9894L160.863 94.1779L160.877 94.2388L160.898 94.2979L161.798 93.9894ZM167.376 105.419L168.264 105.879L168.512 105.265L168.067 104.745L167.376 105.419ZM167.332 105.528L167.01 106.48L167.867 106.863L168.22 105.988L167.332 105.528ZM161.79 103.051L161.416 103.978L161.441 103.992L161.468 104.003L161.79 103.051ZM152.091 96.8447L152.598 95.9998L151.641 95.3006L151.203 96.3848L152.091 96.8447ZM151.259 97.6685L152.797 99.7793L154.287 98.5665L152.748 96.4556L151.259 97.6685ZM152.875 99.8747C157.975 105.454 163.679 109.881 169.931 113.119L170.679 111.264C164.652 108.143 159.146 103.872 154.209 98.4711L152.875 99.8747ZM169.809 113.045L170.493 113.531L171.485 111.825L170.801 111.339L169.809 113.045ZM170.842 113.689L171.302 113.796L171.597 111.773L171.137 111.666L170.842 113.689ZM171.075 113.712C173.797 115.122 176.082 116.109 177.861 116.538L178.172 114.52C176.626 114.147 174.513 113.25 171.824 111.857L171.075 113.712ZM178.961 115.795L180.184 109.333L178.295 108.802L177.071 115.263L178.961 115.795ZM179.326 108.044C177.369 107.725 174.355 106.876 170.191 105.507L169.732 107.484C173.898 108.853 177.037 109.746 179.153 110.091L179.326 108.044ZM170.815 106.072C169.977 104.303 169.404 102.694 169.077 101.173L167.201 101.52C167.573 103.253 168.214 105.031 169.108 106.919L170.815 106.072ZM167.765 102.274C170.143 103.506 173.093 104.036 176.535 103.926L176.36 101.857C173.112 101.96 170.505 101.451 168.513 100.42L167.765 102.274ZM176.42 103.923C178.671 104.141 181.043 103.539 183.478 102.226L182.531 100.364C180.305 101.564 178.28 102.035 176.475 101.861L176.42 103.923ZM183.893 101.755L183.936 101.647L182.16 100.727L182.117 100.835L183.893 101.755ZM183.881 100.721C182.464 98.0259 181.284 96.0692 180.362 95.0676L179.034 96.4767C179.73 97.2329 180.786 98.9311 182.216 101.653L183.881 100.721ZM178.974 95.0425L178.502 95.5868L179.951 97.046L180.422 96.5017L178.974 95.0425ZM178.632 95.464C175.118 98.1852 171.556 99.283 167.895 98.8539L167.803 100.912C172.01 101.405 176.015 100.116 179.821 97.1688L178.632 95.464ZM168.223 98.9555L168.119 98.9016L167.371 100.756L167.475 100.81L168.223 98.9555ZM168.676 99.6252C167.939 96.6009 167.809 93.763 168.299 91.082L166.407 90.5639C165.855 93.584 166.011 96.741 166.814 100.033L168.676 99.6252ZM167.727 89.8956C167.488 89.7716 167.249 89.7527 167.12 89.7474C166.964 89.7409 166.796 89.7513 166.629 89.7696C166.292 89.8065 165.869 89.8856 165.371 89.9987C164.371 90.2261 162.984 90.6111 161.221 91.1481L161.85 93.1427C163.601 92.6095 164.941 92.2389 165.88 92.0255C166.352 91.9182 166.701 91.8556 166.94 91.8294C167.061 91.8162 167.132 91.8148 167.165 91.8161C167.226 91.8186 167.127 91.8272 166.979 91.7503L167.727 89.8956ZM160.648 91.6855C160.546 91.9368 160.544 92.1931 160.547 92.3288C160.551 92.4941 160.571 92.6718 160.597 92.8475C160.649 93.2005 160.742 93.6499 160.863 94.1779L162.733 93.801C162.615 93.2852 162.538 92.9077 162.5 92.6472C162.48 92.5161 162.475 92.4405 162.474 92.4052C162.472 92.3404 162.487 92.4491 162.424 92.6054L160.648 91.6855ZM160.898 94.2979C162.811 99.8052 164.723 103.799 166.685 106.094L168.067 104.745C166.397 102.792 164.597 99.1483 162.698 93.6809L160.898 94.2979ZM166.488 104.959L166.445 105.068L168.22 105.988L168.264 105.879L166.488 104.959ZM167.655 104.575L162.112 102.099L161.468 104.003L167.01 106.48L167.655 104.575ZM162.164 102.124C159.469 100.727 156.291 98.6954 152.598 95.9998L151.584 97.6896C155.326 100.421 158.596 102.518 161.416 103.978L162.164 102.124ZM151.203 96.3848L151.116 96.6021L152.891 97.522L152.979 97.3046L151.203 96.3848Z" fill="black"/>
<path d="M165.541 66.703C170.447 69.2458 175.629 71.1321 181.117 72.3682L182.146 72.6L183.535 72.7931C183.9 73.5045 184.046 74.1064 183.976 74.5699L183.871 75.2651L183.52 76.0247C181.683 77.6179 179.452 78.1039 176.794 77.5052L174.965 77.0931C172.622 76.5652 170.84 75.4451 169.564 73.7198C168.363 72.6705 167.612 71.1834 167.284 69.2522L167.055 69.2007C166.81 70.8229 167.363 73.2241 168.687 76.3978C170.575 79.5489 173.865 81.6379 178.495 82.6809L178.838 82.7581C179.781 82.9706 180.997 82.9449 182.522 82.6295C184.606 82.1403 186.517 80.8335 188.191 78.7543L184.467 72.8833C185.496 73.115 186.883 73.1279 188.608 72.8576L187.206 67.2699C177.324 67.7396 170.096 67.4595 165.576 66.4712L165.541 66.703Z" fill="white"/>
<path d="M165.541 66.703L164.565 66.4832L164.451 67.2418L165.144 67.6011L165.541 66.703ZM182.146 72.6L181.996 73.5888L182.037 73.5979L182.078 73.6036L182.146 72.6ZM183.535 72.7931L184.401 72.3687L184.142 71.8645L183.603 71.7895L183.535 72.7931ZM183.871 75.2651L184.768 75.748L184.825 75.6233L184.846 75.4849L183.871 75.2651ZM183.52 76.0247L184.186 76.8163L184.333 76.6882L184.417 76.5076L183.52 76.0247ZM169.564 73.7198L170.336 73.1423L170.264 73.0458L170.174 72.9672L169.564 73.7198ZM167.284 69.2522L168.255 69.1431L168.133 68.421L167.433 68.2634L167.284 69.2522ZM167.055 69.2007L167.204 68.2119L166.229 67.9922L166.079 68.981L167.055 69.2007ZM168.687 76.3978L167.783 76.7426L167.814 76.8166L167.855 76.8856L168.687 76.3978ZM182.522 82.6295L182.778 83.623L182.79 83.6205L182.802 83.6177L182.522 82.6295ZM188.191 78.7543L188.968 79.4297L189.411 78.8795L189.007 78.2425L188.191 78.7543ZM184.467 72.8833L184.616 71.8945L182.379 71.3906L183.651 73.3951L184.467 72.8833ZM188.608 72.8576L188.82 73.8592L189.823 73.7021L189.563 72.6674L188.608 72.8576ZM187.206 67.2699L188.161 67.0797L187.945 66.2177L187.095 66.2581L187.206 67.2699ZM165.576 66.4712L165.719 65.4811L164.749 65.2689L164.6 66.2515L165.576 66.4712ZM165.144 67.6011C170.131 70.1863 175.397 72.1023 180.967 73.357L181.266 71.3794C175.861 70.1619 170.762 68.3054 165.938 65.8048L165.144 67.6011ZM180.967 73.357L181.996 73.5888L182.295 71.6112L181.266 71.3794L180.967 73.357ZM182.078 73.6036L183.467 73.7967L183.603 71.7895L182.213 71.5964L182.078 73.6036ZM182.668 73.2176C182.988 73.8396 183.023 74.1987 183 74.3501L184.951 74.7896C185.069 74.014 184.813 73.1693 184.401 72.3687L182.668 73.2176ZM183 74.3501L182.895 75.0454L184.846 75.4849L184.951 74.7896L183 74.3501ZM182.974 74.7822L182.623 75.5418L184.417 76.5076L184.768 75.748L182.974 74.7822ZM182.854 75.2331C181.259 76.6168 179.336 77.0553 176.944 76.5164L176.645 78.494C179.569 79.1525 182.107 78.6191 184.186 76.8163L182.854 75.2331ZM176.944 76.5164L175.115 76.1044L174.816 78.0819L176.645 78.494L176.944 76.5164ZM175.115 76.1044C172.978 75.6231 171.434 74.628 170.336 73.1423L168.793 74.2973C170.246 76.2621 172.265 77.5073 174.816 78.0819L175.115 76.1044ZM170.174 72.9672C169.21 72.125 168.554 70.8941 168.255 69.1431L166.312 69.3613C166.671 71.4728 167.516 73.216 168.954 74.4725L170.174 72.9672ZM167.433 68.2634L167.204 68.2119L166.906 70.1895L167.134 70.241L167.433 68.2634ZM166.079 68.981C165.789 70.9058 166.45 73.5453 167.783 76.7426L169.59 76.053C168.277 72.9029 167.831 70.7401 168.03 69.4205L166.079 68.981ZM167.855 76.8856C169.946 80.374 173.54 82.5871 178.346 83.6697L178.644 81.6921C174.19 80.6887 171.204 78.7239 169.518 75.91L167.855 76.8856ZM178.346 83.6697L178.689 83.7469L178.987 81.7694L178.644 81.6921L178.346 83.6697ZM178.689 83.7469C179.817 84.0012 181.181 83.9534 182.778 83.623L182.266 81.6359C180.813 81.9364 179.745 81.94 178.987 81.7694L178.689 83.7469ZM182.802 83.6177C185.127 83.0718 187.2 81.6263 188.968 79.4297L187.413 78.0789C185.834 80.0407 184.084 81.2088 182.242 81.6412L182.802 83.6177ZM189.007 78.2425L185.284 72.3715L183.651 73.3951L187.374 79.2661L189.007 78.2425ZM184.318 73.8721C185.511 74.1408 187.029 74.1399 188.82 73.8592L188.396 71.856C186.737 72.116 185.481 72.0893 184.616 71.8945L184.318 73.8721ZM189.563 72.6674L188.161 67.0797L186.252 67.4602L187.654 73.0479L189.563 72.6674ZM187.095 66.2581C177.225 66.7272 170.105 66.4399 165.719 65.4811L165.433 67.4614C170.087 68.479 177.423 68.752 187.317 68.2817L187.095 66.2581ZM164.6 66.2515L164.565 66.4832L166.516 66.9227L166.551 66.691L164.6 66.2515Z" fill="black"/>
<path d="M142.581 71.7399L140.631 71.7423L139.982 71.7431L139.481 70.3301L138.462 68.4942L137.166 66.408L135.792 64.4886L135.792 63.9879L136.055 63.3202L135.591 62.4022L135.05 61.682L135.793 61.6811L136.906 61.6796L138.113 61.6024L139.69 61.5248L141.547 61.371L143.31 61.1418L145.537 60.8362L147.3 60.6069L148.692 60.4538L149.435 60.4529L149.713 60.6039L149.992 60.9821L150.272 61.663L150.737 63.0249L151.296 64.8408L151.577 66.2786L151.857 67.9435L152.137 69.3057L152.325 70.668L152.325 71.2735L152.233 71.5764L152.048 71.728L151.677 71.8799L151.305 71.8803L149.913 71.882L148.428 71.884L146.85 71.8859L145.551 71.8876L143.973 71.7381L142.581 71.7399Z" fill="white" stroke="#A8CCF7" stroke-width="2"/>
<path d="M128.823 52.0799L127.525 53.6711L128.746 54.4751L129.95 55.3095L131.617 56.5612L133.191 57.8129L134.21 58.6473L134.951 59.3149L135.6 60.0914L136.526 61.0673L138.95 60.091L140.712 58.9533L142.752 57.5883L144.514 56.5263L145.905 55.5405L147.667 54.1758L149.336 52.8869L150.82 51.7496L152.025 50.6127L153.508 49.2483L153.879 48.718L153.971 48.1879L153.878 47.8853L153.692 47.5827L153.134 47.1292L151.649 46.4499L149.884 45.6951L147.47 44.7898L145.705 43.9593L144.033 43.1288L142.269 42.4497L140.226 41.5439L137.904 40.3357L135.954 39.5055L134.84 39.4312L134.562 39.6586L134.191 40.3403L133.822 42.006L133.36 43.7477L132.898 45.3378L132.158 47.1554L131.232 48.8977L130.12 50.64L128.823 52.0799Z" fill="white" stroke="#A7CAF1" stroke-width="2"/>
<path d="M145.272 89.0088L145.277 88.9709L145.279 88.9327C146.376 70.6124 130.08 47.9212 102.147 47.9561C88.113 47.9736 77.3396 52.9108 70.0762 60.4851C62.8286 68.0427 59.0158 78.2884 59.0023 89.0673L59.0022 89.1252L59.0088 89.1827C59.495 93.4166 60.8281 96.792 62.8859 99.4911C64.9645 102.218 67.8274 104.313 71.439 105.894C78.702 109.075 88.8638 110.127 101.328 110.112C113.789 110.096 124.261 109.019 131.885 105.812L131.497 104.89L131.885 105.812C135.68 104.215 138.735 102.104 140.983 99.3625C143.212 96.6428 144.69 93.2513 145.272 89.0088Z" fill="url(#paint0_radial_75_9)" stroke="#E89DCA" stroke-width="2"/>
<path d="M101.86 106.393C107.602 106.393 112.567 102.22 112.567 96.7109C112.567 91.2021 107.602 87.0286 101.86 87.0286C96.1184 87.0286 91.1536 91.2021 91.1536 96.7109C91.1536 102.22 96.1184 106.393 101.86 106.393Z" fill="#F9D877" stroke="#492E23" stroke-width="3"/>
<ellipse cx="98.6053" cy="94.7598" rx="14.0226" ry="11.5667" fill="url(#paint1_linear_75_9)"/>
<path d="M80.335 96.8011C85.4612 96.7947 89.6107 91.9771 89.6033 86.0406C89.5959 80.1042 85.4343 75.2969 80.3081 75.3034C75.182 75.3098 71.0324 80.1274 71.0398 86.0638C71.0472 92.0003 75.2088 96.8075 80.335 96.8011Z" fill="#492E23"/>
<path d="M78.0935 85.7528C80.6566 85.7496 82.7323 84.0525 82.7297 81.9622C82.7271 79.8719 80.6472 78.18 78.0841 78.1832C75.521 78.1864 73.4453 79.8835 73.4479 81.9738C73.4505 84.0641 75.5305 85.756 78.0935 85.7528Z" fill="white"/>
<path d="M83.5801 94.0721C84.759 94.0706 85.7137 93.29 85.7125 92.3286C85.7113 91.3671 84.7547 90.5889 83.5757 90.5904C82.3968 90.5918 81.4421 91.3724 81.4433 92.3339C81.4445 93.2954 82.4012 94.0736 83.5801 94.0721Z" fill="white"/>
<path d="M74.2909 88.1791C75.1622 88.1781 75.868 87.635 75.8671 86.9661C75.8663 86.2973 75.1592 85.756 74.2878 85.7571C73.4164 85.7582 72.7107 86.3012 72.7116 86.9701C72.7124 87.6389 73.4195 88.1802 74.2909 88.1791Z" fill="white"/>
<path d="M124.145 96.7469C129.271 96.7405 133.421 91.9568 133.413 86.0621C133.406 80.1675 129.244 75.3941 124.118 75.4005C118.992 75.4069 114.842 80.1907 114.85 86.0853C114.857 91.98 119.019 96.7533 124.145 96.7469Z" fill="#492E23"/>
<path d="M127.575 94.0172C128.754 94.0157 129.709 93.2351 129.708 92.2736C129.707 91.3122 128.75 90.5339 127.571 90.5354C126.392 90.5369 125.437 91.3175 125.439 92.279C125.44 93.2404 126.396 94.0187 127.575 94.0172Z" fill="white"/>
<path d="M117.544 88.1259C118.415 88.1248 119.121 87.5818 119.12 86.9129C119.119 86.2441 118.412 85.7028 117.541 85.7038C116.669 85.7049 115.964 86.248 115.965 86.9169C115.965 87.5857 116.672 88.127 117.544 88.1259Z" fill="white"/>
<path d="M121.904 85.8495C124.467 85.8463 126.542 84.1492 126.54 82.0589C126.537 79.9686 124.457 78.2766 121.894 78.2798C119.331 78.283 117.255 79.9802 117.258 82.0705C117.261 84.1607 119.341 85.8527 121.904 85.8495Z" fill="white"/>
<path d="M71.5624 96.7883L68.2411 99.2428" stroke="#E89DCA" stroke-width="2" stroke-linecap="round"/>
<path d="M76.9247 99.053L73.0978 101.954" stroke="#E89DCA" stroke-width="2" stroke-linecap="round"/>
<path d="M74.6176 97.75L69.9807 101.088" stroke="#E89DCA" stroke-width="2" stroke-linecap="round"/>
<path d="M79.7437 100.268L77.4817 101.893" stroke="#E89DCA" stroke-width="2" stroke-linecap="round"/>
<path d="M133.108 96.584L136.436 99.0302" stroke="#E89DCA" stroke-width="2" stroke-linecap="round"/>
<path d="M127.752 98.8623L131.586 101.754" stroke="#E89DCA" stroke-width="2" stroke-linecap="round"/>
<path d="M130.056 97.5537L134.701 100.88" stroke="#E89DCA" stroke-width="2" stroke-linecap="round"/>
<path d="M124.936 100.084L127.202 101.704" stroke="#E89DCA" stroke-width="2" stroke-linecap="round"/>
<path d="M77.9618 54.7925L75.2698 54.4931L74.713 54.5695L73.7854 55.1006L72.6728 56.0102L71.3748 57.1473L70.0767 58.2086L68.7789 59.5728L67.574 60.9368L66.2766 62.5281L65.072 64.1949L64.1456 65.5586L63.2192 66.9979L62.2927 68.3616L62.015 68.9675L62.1083 69.3459L62.8514 69.7992L64.1513 70.176L65.4512 70.4772L66.9366 70.7781L68.7005 71.0787L70.9285 71.3787L73.2493 71.6786L75.8486 71.978L78.0764 72.2024L80.3971 72.4265L83.089 72.5746L85.3167 72.6476L87.6372 72.7203L89.8648 72.7175L92.9278 72.7137L94.9696 72.6355L97.3826 72.4811L99.8885 72.3265L102.673 72.096L105.643 71.7895L108.148 71.4836L110.19 71.1782L112.603 70.7967L115.387 70.3391L118.634 69.7295L120.769 69.2726L122.903 68.8158L124.758 68.3593L127.078 67.6751L129.398 66.991L132.274 66.0791L135.057 65.1672L136.82 64.5595L138.119 64.1036L138.304 63.8007L138.118 63.1953L137.56 62.439L136.444 61.0779L135.794 60.246L135.05 59.4901L134.121 58.5829L133.192 57.7513L131.519 56.3909L130.219 55.4085L128.825 54.5019L127.246 53.4441L125.76 52.4619L124.738 51.8577L124.181 51.8584L121.583 52.4672L118.614 53.1521L115.18 53.762L112.118 54.22L108.777 54.6783L104.601 55.062L101.724 55.2927L99.2177 55.4473L96.3404 55.4509L93.6487 55.4542L90.8643 55.4577L87.5228 55.4618L84.0883 55.239L80.7468 55.0919L77.9618 54.7925Z" fill="white" stroke="#A7CAF1" stroke-width="2"/>
<path d="M132.022 56.1744L134.014 53.7875L136.007 51.4006M136.476 55.639L134.019 57.5345M145.455 67.0957L140.907 66.7607M78.0068 59.6482L73.4583 59.3132M74.3512 61.837L71.6977 61.6621" stroke="#A7CAF1" stroke-width="2" stroke-linecap="round"/>
<path d="M99.6052 68.1642C102.988 68.16 105.728 65.9198 105.725 63.1606C105.721 60.4014 102.976 58.1681 99.5927 58.1723C96.2094 58.1765 93.4696 60.4167 93.473 63.1759C93.4765 65.9351 96.2219 68.1684 99.6052 68.1642Z" fill="#F74527"/>
<path d="M37.5115 46.8247C40.6392 52.9921 44.1883 57.6408 48.1108 60.7608L49.5559 61.9103C51.2935 63.2923 53.3704 64.495 55.7868 65.5181L57.8025 59.5938C52.478 58.4484 47.7134 56.1753 43.4468 52.7816C41.7092 51.3996 40.1015 49.7836 38.6407 47.9476C42.6569 47.7715 46.7787 48.5221 50.9788 50.2338C52.9307 53.3593 54.2679 55.2094 54.9904 55.7841L55.0593 55.8388L55.114 55.77C54.3601 53.8221 53.9409 52.4775 53.8393 51.7226C54.8089 52.2691 55.6894 52.8571 56.4808 53.4866L57.0313 53.9245C58.7173 55.2655 60.1218 56.6074 61.2447 57.95L61.2995 57.8812L59.2833 48.9745C58.8016 48.5914 56.6367 47.8525 52.8366 46.768L52.7678 46.7132C52.3384 42.9449 52.2832 40.4012 52.6503 39.0921C54.8148 39.6903 56.6541 40.5914 58.1508 41.782L58.4261 42.0009C61.2991 44.2861 63.5833 47.1704 65.2889 50.6056C65.536 50.5774 67.0511 49.732 69.8134 48.0249C69.7566 47.39 68.3549 45.7975 65.639 43.244L64.6756 42.4777C61.4757 39.9325 57.558 38.5016 52.9224 38.185L52.7848 38.0755L53.2867 35.8907L47.8019 33.8874L47.6924 34.0251C47.0099 37.9201 47.4811 41.9183 49.0581 46.0096C44.8616 45.5648 41.2411 46.0555 38.2137 47.4956L37.6209 46.6871L37.5115 46.8247Z" fill="white"/>
<path d="M37.5115 46.8247L36.7288 46.2022L36.3293 46.7046L36.6196 47.277L37.5115 46.8247ZM55.7868 65.5181L55.3969 66.439L56.3871 66.8583L56.7335 65.8402L55.7868 65.5181ZM57.8025 59.5938L58.7492 59.9159L59.1111 58.8524L58.0129 58.6162L57.8025 59.5938ZM38.6407 47.9476L38.5969 46.9486L36.6363 47.0345L37.8581 48.5702L38.6407 47.9476ZM50.9788 50.2338L51.8269 49.7041L51.6556 49.4297L51.3561 49.3077L50.9788 50.2338ZM55.0593 55.8388L54.4368 56.6215L55.2194 57.244L55.8419 56.4613L55.0593 55.8388ZM55.114 55.77L55.8966 56.3925L56.2535 55.9438L56.0466 55.4091L55.114 55.77ZM53.8393 51.7226L54.3303 50.8514L52.58 49.8648L52.8482 51.856L53.8393 51.7226ZM61.2447 57.95L60.4777 58.5916L61.2642 59.5319L62.0274 58.5725L61.2447 57.95ZM61.2995 57.8812L62.0821 58.5037L62.3807 58.1283L62.2748 57.6604L61.2995 57.8812ZM59.2833 48.9745L60.2586 48.7538L60.181 48.4108L59.9058 48.1919L59.2833 48.9745ZM52.8366 46.768L52.2141 47.5506L52.3703 47.6748L52.5622 47.7296L52.8366 46.768ZM52.7678 46.7132L51.7742 46.8265L51.8211 47.238L52.1453 47.4959L52.7678 46.7132ZM52.6503 39.0921L52.9167 38.1282L51.9564 37.8629L51.6874 38.8221L52.6503 39.0921ZM65.2889 50.6056L64.3932 51.0503L64.7052 51.6786L65.4021 51.5991L65.2889 50.6056ZM69.8134 48.0249L70.3391 48.8756L70.8643 48.551L70.8094 47.936L69.8134 48.0249ZM65.639 43.244L66.324 42.5155L66.2939 42.4872L66.2615 42.4614L65.639 43.244ZM52.9224 38.185L52.2999 38.9676L52.5436 39.1615L52.8543 39.1827L52.9224 38.185ZM52.7848 38.0755L51.8102 37.8516L51.669 38.4658L52.1623 38.8582L52.7848 38.0755ZM53.2867 35.8907L54.2613 36.1146L54.459 35.2542L53.6298 34.9514L53.2867 35.8907ZM47.8019 33.8874L48.145 32.9481L47.468 32.7008L47.0193 33.2649L47.8019 33.8874ZM47.6924 34.0251L46.9098 33.4026L46.7514 33.6017L46.7074 33.8524L47.6924 34.0251ZM49.0581 46.0096L48.9527 47.004L50.5796 47.1765L49.9912 45.6499L49.0581 46.0096ZM38.2137 47.4956L37.4072 48.0869L37.8963 48.754L38.6433 48.3987L38.2137 47.4956ZM37.6209 46.6871L38.4274 46.0958L37.6533 45.0399L36.8383 46.0646L37.6209 46.6871ZM36.6196 47.277C39.7901 53.5288 43.4204 58.3078 47.4883 61.5434L48.7333 59.9782C44.9562 56.9739 41.4882 52.4554 38.4033 46.3724L36.6196 47.277ZM47.4883 61.5434L48.9334 62.6929L50.1784 61.1276L48.7333 59.9782L47.4883 61.5434ZM48.9334 62.6929C50.7534 64.1405 52.9118 65.3867 55.3969 66.439L56.1767 64.5973C53.8291 63.6032 51.8336 62.4442 50.1784 61.1276L48.9334 62.6929ZM56.7335 65.8402L58.7492 59.9159L56.8558 59.2717L54.8401 65.196L56.7335 65.8402ZM58.0129 58.6162C52.8411 57.5036 48.2171 55.2982 44.0693 51.999L42.8243 53.5643C47.2096 57.0524 52.1149 59.3931 57.5922 60.5714L58.0129 58.6162ZM44.0693 51.999C42.3939 50.6664 40.8393 49.1049 39.4232 47.325L37.8581 48.5702C39.3636 50.4624 41.0245 52.1327 42.8243 53.5643L44.0693 51.999ZM38.6845 48.9467C42.5422 48.7775 46.5207 49.4969 50.6014 51.1598L51.3561 49.3077C47.0367 47.5474 42.7715 46.7656 38.5969 46.9486L38.6845 48.9467ZM50.1306 50.7635C51.1122 52.3353 51.9478 53.6003 52.6351 54.5513C53.3016 55.4733 53.8871 56.1842 54.3679 56.5667L55.6129 55.0015C55.3713 54.8093 54.9268 54.3077 54.2561 53.3797C53.6061 52.4805 52.7972 51.2577 51.8269 49.7041L50.1306 50.7635ZM54.3679 56.5667L54.4368 56.6215L55.6818 55.0562L55.6129 55.0015L54.3679 56.5667ZM55.8419 56.4613L55.8966 56.3925L54.3314 55.1475L54.2766 55.2163L55.8419 56.4613ZM56.0466 55.4091C55.2898 53.4536 54.9142 52.2117 54.8303 51.5891L52.8482 51.856C52.9677 52.7434 53.4305 54.1907 54.1814 56.131L56.0466 55.4091ZM53.3482 52.5937C54.2763 53.1168 55.1123 53.6758 55.8583 54.2692L57.1033 52.704C56.2666 52.0385 55.3415 51.4214 54.3303 50.8514L53.3482 52.5937ZM55.8583 54.2692L56.4088 54.7071L57.6538 53.1419L57.1033 52.704L55.8583 54.2692ZM56.4088 54.7071C58.0536 56.0154 59.4066 57.311 60.4777 58.5916L62.0118 57.3084C60.837 55.9038 59.3811 54.5157 57.6538 53.1419L56.4088 54.7071ZM62.0274 58.5725L62.0821 58.5037L60.5169 57.2587L60.4621 57.3275L62.0274 58.5725ZM62.2748 57.6604L60.2586 48.7538L58.308 49.1953L60.3242 58.102L62.2748 57.6604ZM59.9058 48.1919C59.6688 48.0034 59.3301 47.8411 58.9979 47.7001C58.6368 47.5469 58.1773 47.376 57.628 47.1881C56.5276 46.8117 55.0174 46.3504 53.1111 45.8064L52.5622 47.7296C54.4559 48.27 55.9282 48.7204 56.9807 49.0804C57.5078 49.2607 57.9174 49.4142 58.2165 49.5411C58.3659 49.6046 58.4788 49.6576 58.5602 49.7002C58.6481 49.7462 58.6717 49.7659 58.6608 49.7572L59.9058 48.1919ZM53.4591 45.9854L53.3903 45.9306L52.1453 47.4959L52.2141 47.5506L53.4591 45.9854ZM53.7614 46.6C53.5486 44.7324 53.431 43.1895 53.4102 41.9635C53.3891 40.7184 53.4698 39.8731 53.6132 39.3621L51.6874 38.8221C51.4636 39.6201 51.3885 40.7013 51.4105 41.9974C51.4329 43.3127 51.5576 44.9257 51.7742 46.8265L53.7614 46.6ZM52.3839 40.056C54.4402 40.6242 56.153 41.4707 57.5283 42.5646L58.7733 40.9993C57.1551 39.7122 55.1894 38.7563 52.9167 38.1282L52.3839 40.056ZM57.5283 42.5646L57.8036 42.7835L59.0486 41.2183L58.7733 40.9993L57.5283 42.5646ZM57.8036 42.7835C60.554 44.9713 62.7482 47.7371 64.3932 51.0503L66.1846 50.1609C64.4184 46.6037 62.0442 43.601 59.0486 41.2183L57.8036 42.7835ZM65.4021 51.5991C65.5874 51.578 65.7546 51.509 65.8231 51.4807C65.9244 51.4388 66.0382 51.3853 66.1586 51.3251C66.4012 51.2039 66.7174 51.0324 67.1014 50.8147C67.8717 50.3776 68.953 49.7322 70.3391 48.8756L69.2876 47.1743C67.9115 48.0247 66.854 48.6556 66.1145 49.0751C65.7435 49.2855 65.462 49.4374 65.2647 49.536C65.1652 49.5857 65.0985 49.6161 65.0588 49.6325C64.9864 49.6625 65.0522 49.6261 65.1757 49.612L65.4021 51.5991ZM70.8094 47.936C70.7718 47.5147 70.55 47.1189 70.3564 46.8224C70.1385 46.4886 69.8393 46.1107 69.476 45.6954C68.7471 44.8623 67.6901 43.7999 66.324 42.5155L64.954 43.9726C66.3038 45.2417 67.3057 46.2522 67.9708 47.0124C68.3044 47.3938 68.5361 47.6926 68.6818 47.9158C68.8518 48.1762 68.8266 48.2176 68.8173 48.1139L70.8094 47.936ZM66.2615 42.4614L65.2981 41.6951L64.0531 43.2603L65.0165 44.0267L66.2615 42.4614ZM65.2981 41.6951C61.9185 39.0069 57.7998 37.5158 52.9905 37.1873L52.8543 39.1827C57.3161 39.4874 61.0329 40.8581 64.0531 43.2603L65.2981 41.6951ZM53.5449 37.4024L53.4073 37.2929L52.1623 38.8582L52.2999 38.9676L53.5449 37.4024ZM53.7594 38.2995L54.2613 36.1146L52.3121 35.6668L51.8102 37.8516L53.7594 38.2995ZM53.6298 34.9514L48.145 32.9481L47.4588 34.8267L52.9437 36.83L53.6298 34.9514ZM47.0193 33.2649L46.9098 33.4026L48.475 34.6476L48.5845 34.5099L47.0193 33.2649ZM46.7074 33.8524C45.9896 37.9491 46.4916 42.1315 48.125 46.3692L49.9912 45.6499C48.4707 41.7052 48.0302 37.8911 48.6774 34.1977L46.7074 33.8524ZM49.1635 45.0151C44.8324 44.556 41.0173 45.0546 37.7841 46.5926L38.6433 48.3987C41.4649 47.0565 44.8908 46.5735 48.9527 47.004L49.1635 45.0151ZM39.0202 46.9044L38.4274 46.0958L36.8145 47.2783L37.4072 48.0869L39.0202 46.9044ZM36.8383 46.0646L36.7288 46.2022L38.2941 47.4472L38.4036 47.3096L36.8383 46.0646Z" fill="black"/>
<path d="M69.3659 28.2309C69.2467 28.2875 68.939 29.8938 68.4427 33.05L68.4804 33.1294L68.5976 33.1711C69.1933 32.8882 70.2878 32.7332 71.8719 32.6865C74.2794 33.2464 75.8228 34.2411 76.4925 35.6509L76.7943 36.2863C77.5584 37.8946 77.5768 40.3925 76.8402 43.7602L76.878 43.8396L77.6047 42.9103C79.6388 39.559 79.9207 36.31 78.4304 33.1728L78.204 32.6962C77.9116 32.0807 77.4226 31.4612 76.7465 30.8576C75.0204 29.1709 72.5602 28.2953 69.3659 28.2309ZM68.4088 28.8802L68.25 28.9557C65.776 32.6619 65.3418 36.1536 66.8981 39.4299L67.2754 40.2241C67.9828 41.7133 69.3331 43.0188 71.3659 44.1217C73.4076 44.7824 74.9698 44.8434 76.042 44.3341L76.8858 39.5526L76.8103 39.3938L76.572 39.507C75.619 39.9597 74.4147 40.1911 72.9801 40.1425C70.7378 39.6745 69.3295 38.8103 68.7447 37.5792L68.2542 36.5467C67.4147 34.7795 67.4757 32.2439 68.4465 28.9596L68.4088 28.8802Z" fill="white"/>
<path d="M69.3659 28.2309L69.386 27.2311L69.15 27.2263L68.9368 27.3276L69.3659 28.2309ZM68.4427 33.05L67.4548 32.8947L67.4068 33.1999L67.5394 33.4791L68.4427 33.05ZM68.4804 33.1294L67.5772 33.5585L67.7549 33.9327L68.1451 34.0715L68.4804 33.1294ZM68.5976 33.1711L68.2623 34.1132L68.6525 34.2521L69.0267 34.0744L68.5976 33.1711ZM71.8719 32.6865L72.0984 31.7125L71.972 31.6831L71.8424 31.687L71.8719 32.6865ZM76.8402 43.7602L75.8633 43.5465L75.7903 43.8805L75.937 44.1893L76.8402 43.7602ZM76.878 43.8396L75.9747 44.2687L76.669 45.7302L77.6657 44.4556L76.878 43.8396ZM77.6047 42.9103L78.3924 43.5263L78.4288 43.4797L78.4595 43.4292L77.6047 42.9103ZM76.7465 30.8576L76.0476 31.5728L76.0637 31.5886L76.0805 31.6036L76.7465 30.8576ZM68.4088 28.8802L69.3121 28.4511L68.883 27.5478L67.9797 27.9769L68.4088 28.8802ZM68.25 28.9557L67.8209 28.0524L67.5715 28.1708L67.4182 28.4005L68.25 28.9557ZM71.3659 44.1217L70.889 45.0007L70.9702 45.0447L71.058 45.0732L71.3659 44.1217ZM76.042 44.3341L76.4711 45.2373L76.9372 45.0159L77.0268 44.5078L76.042 44.3341ZM76.8858 39.5526L77.8706 39.7264L77.926 39.412L77.789 39.1236L76.8858 39.5526ZM76.8103 39.3938L77.7136 38.9647L77.2845 38.0614L76.3812 38.4905L76.8103 39.3938ZM72.9801 40.1425L72.7757 41.1214L72.8601 41.139L72.9462 41.1419L72.9801 40.1425ZM68.4465 28.9596L69.4055 29.2431L69.514 28.8762L69.3498 28.5305L68.4465 28.9596ZM68.9368 27.3276C68.7566 27.4132 68.6452 27.5309 68.5934 27.5917C68.5354 27.6597 68.4961 27.7231 68.4726 27.7644C68.4259 27.8463 68.3947 27.9238 68.3758 27.974C68.3364 28.0795 68.3022 28.1996 68.2725 28.3153C68.2113 28.5537 68.1416 28.8827 68.0636 29.29C67.9065 30.1099 67.7034 31.3138 67.4548 32.8947L69.4306 33.2053C69.6783 31.63 69.8772 30.4526 70.0279 29.6662C70.1037 29.2703 70.1642 28.9898 70.2097 28.8125C70.2208 28.7695 70.23 28.7363 70.2374 28.7115C70.2451 28.6856 70.249 28.675 70.2488 28.6754C70.2486 28.676 70.2461 28.6828 70.241 28.6942C70.2363 28.7047 70.2262 28.7265 70.21 28.7549C70.1954 28.7805 70.1647 28.8313 70.1149 28.8898C70.0712 28.9409 69.9677 29.0521 69.7949 29.1341L68.9368 27.3276ZM67.5394 33.4791L67.5772 33.5585L69.3837 32.7003L69.346 32.6209L67.5394 33.4791ZM68.1451 34.0715L68.2623 34.1132L68.9329 32.229L68.8157 32.1873L68.1451 34.0715ZM69.0267 34.0744C69.4096 33.8925 70.3049 33.7332 71.9013 33.6861L71.8424 31.687C70.2708 31.7333 68.9769 31.8838 68.1685 32.2679L69.0267 34.0744ZM71.6454 33.6605C73.9271 34.1911 75.1106 35.0724 75.5892 36.08L77.3958 35.2218C76.535 33.4099 74.6318 32.3016 72.0984 31.7125L71.6454 33.6605ZM75.5892 36.08L75.8911 36.7154L77.6976 35.8572L77.3958 35.2218L75.5892 36.08ZM75.8911 36.7154C76.5053 38.0084 76.59 40.2242 75.8633 43.5465L77.8171 43.9738C78.5636 40.5609 78.6114 37.7809 77.6976 35.8572L75.8911 36.7154ZM75.937 44.1893L75.9747 44.2687L77.7812 43.4105L77.7435 43.3311L75.937 44.1893ZM77.6657 44.4556L78.3924 43.5263L76.8169 42.2943L76.0902 43.2236L77.6657 44.4556ZM78.4595 43.4292C80.6407 39.8357 80.9898 36.2301 79.3336 32.7437L77.5271 33.6019C78.8516 36.39 78.637 39.2824 76.7498 42.3914L78.4595 43.4292ZM79.3336 32.7437L79.1073 32.2672L77.3007 33.1253L77.5271 33.6019L79.3336 32.7437ZM79.1073 32.2672C78.743 31.5003 78.1588 30.7779 77.4125 30.1116L76.0805 31.6036C76.6865 32.1445 77.0802 32.6612 77.3007 33.1253L79.1073 32.2672ZM77.4454 30.1424C75.485 28.2266 72.7501 27.2989 69.386 27.2311L69.3457 29.2307C72.3703 29.2917 74.5559 30.1151 76.0476 31.5728L77.4454 30.1424ZM67.9797 27.9769L67.8209 28.0524L68.679 29.8589L68.8379 29.7835L67.9797 27.9769ZM67.4182 28.4005C64.7976 32.3264 64.2533 36.1929 65.9948 39.8589L67.8014 39.0008C66.4302 36.1144 66.7543 32.9974 69.0817 29.5108L67.4182 28.4005ZM65.9948 39.8589L66.3721 40.6532L68.1786 39.795L67.8014 39.0008L65.9948 39.8589ZM66.3721 40.6532C67.1978 42.3912 68.7351 43.8321 70.889 45.0007L71.8428 43.2428C69.931 42.2055 68.7679 41.0353 68.1786 39.795L66.3721 40.6532ZM71.058 45.0732C73.1736 45.7577 75.0467 45.914 76.4711 45.2373L75.613 43.4308C74.8929 43.7728 73.6417 43.8071 71.6737 43.1703L71.058 45.0732ZM77.0268 44.5078L77.8706 39.7264L75.901 39.3789L75.0573 44.1603L77.0268 44.5078ZM77.789 39.1236L77.7136 38.9647L75.9071 39.8229L75.9825 39.9817L77.789 39.1236ZM76.3812 38.4905L76.143 38.6037L77.0011 40.4103L77.2394 40.2971L76.3812 38.4905ZM76.143 38.6037C75.3648 38.9734 74.3263 39.1875 73.0139 39.1431L72.9462 41.1419C74.5031 41.1947 75.8731 40.9461 77.0011 40.4103L76.143 38.6037ZM73.1844 39.1636C71.0513 38.7184 70.031 37.9564 69.6479 37.1501L67.8414 38.0083C68.628 39.6641 70.4243 40.6306 72.7757 41.1214L73.1844 39.1636ZM69.6479 37.1501L69.1574 36.1176L67.3509 36.9758L67.8414 38.0083L69.6479 37.1501ZM69.1574 36.1176C68.4782 34.6877 68.4573 32.4509 69.4055 29.2431L67.4876 28.6761C66.4941 32.0369 66.3512 34.8713 67.3509 36.9758L69.1574 36.1176ZM69.3498 28.5305L69.3121 28.4511L67.5055 29.3093L67.5433 29.3887L69.3498 28.5305Z" fill="black"/>
<path d="M88.0237 21.8595C85.6838 22.0993 84.1917 23.7106 83.5646 26.6476C84.7746 25.949 85.7273 25.542 86.4489 25.4681L87.1487 25.3964C88.4171 25.2664 89.8771 25.7134 91.5266 26.7155C91.687 26.1245 91.889 24.6454 92.137 22.3218C92.0989 21.9501 90.9546 21.7801 88.7235 21.7878L88.0237 21.8595ZM83.3383 23.5771L83.0938 23.779C81.6077 26.0968 81.0345 28.6968 81.328 31.5615C81.588 34.0981 82.7109 36.2149 84.7209 37.9314C87.1414 39.3407 89.4767 39.919 91.7072 39.6904L91.7947 39.6814C91.9865 39.3966 92.4139 37.9606 93.1228 35.391L92.93 35.234L91.268 35.4043C90.1309 35.5208 89.0369 35.4119 87.9598 35.0362C85.2719 34.251 83.748 31.888 83.3402 27.908L83.2864 27.3832C83.1878 26.421 83.2591 25.1763 83.5222 23.6467L83.4347 23.6556L83.3383 23.5771Z" fill="white"/>
<path d="M83.5646 26.6476L82.5866 26.4388L82.117 28.6379L84.0645 27.5136L83.5646 26.6476ZM91.5266 26.7155L91.0074 27.5702L92.1435 28.2604L92.4917 26.9775L91.5266 26.7155ZM92.137 22.3218L93.1314 22.428L93.1425 22.324L93.1318 22.2199L92.137 22.3218ZM88.7235 21.7878L88.72 20.7878L88.6707 20.7879L88.6215 20.793L88.7235 21.7878ZM83.3383 23.5771L83.9696 22.8016L83.3338 22.284L82.7016 22.806L83.3383 23.5771ZM83.0938 23.779L82.4572 23.0078L82.3364 23.1074L82.252 23.2392L83.0938 23.779ZM84.7209 37.9314L84.0715 38.6919L84.14 38.7503L84.2178 38.7956L84.7209 37.9314ZM91.7947 39.6814L91.8967 40.6762L92.3626 40.6285L92.6242 40.2399L91.7947 39.6814ZM93.1228 35.391L94.0868 35.6569L94.2604 35.0276L93.7542 34.6155L93.1228 35.391ZM92.93 35.234L93.5613 34.4584L93.2401 34.1969L92.828 34.2392L92.93 35.234ZM87.9598 35.0362L88.2892 34.092L88.2649 34.0835L88.2402 34.0763L87.9598 35.0362ZM83.5222 23.6467L84.5077 23.8162L84.7311 22.5175L83.4202 22.6519L83.5222 23.6467ZM83.4347 23.6556L82.8034 24.4311L83.1246 24.6926L83.5367 24.6504L83.4347 23.6556ZM87.9218 20.8647C86.5292 21.0074 85.3409 21.5704 84.4196 22.5611C83.5148 23.534 82.9243 24.8572 82.5866 26.4388L84.5425 26.8564C84.8319 25.501 85.3011 24.5501 85.8841 23.9231C86.4507 23.3139 87.1784 22.9514 88.1257 22.8543L87.9218 20.8647ZM84.0645 27.5136C85.2632 26.8216 86.057 26.5135 86.5509 26.4629L86.347 24.4733C85.3976 24.5706 84.286 25.0764 83.0646 25.7815L84.0645 27.5136ZM86.5509 26.4629L87.2507 26.3912L87.0468 24.4016L86.347 24.4733L86.5509 26.4629ZM87.2507 26.3912C88.2125 26.2926 89.4486 26.6231 91.0074 27.5702L92.0458 25.8609C90.3056 24.8037 88.6216 24.2402 87.0468 24.4016L87.2507 26.3912ZM92.4917 26.9775C92.6778 26.2921 92.8867 24.7206 93.1314 22.428L91.1427 22.2157C90.8914 24.5702 90.6963 25.957 90.5616 26.4536L92.4917 26.9775ZM93.1318 22.2199C93.0656 21.5733 92.5467 21.277 92.3205 21.1726C92.0467 21.0462 91.722 20.9732 91.4053 20.9242C90.7553 20.8238 89.8474 20.7839 88.72 20.7878L88.7269 22.7878C89.8306 22.784 90.6105 22.8252 91.1 22.9008C91.2185 22.9191 91.3099 22.938 91.378 22.9556C91.4116 22.9643 91.437 22.972 91.4552 22.9782C91.4642 22.9813 91.4709 22.9838 91.4755 22.9856C91.4802 22.9875 91.4823 22.9884 91.4822 22.9884C91.4821 22.9884 91.4793 22.9871 91.4741 22.9842C91.469 22.9814 91.4608 22.9767 91.4502 22.9698C91.43 22.9565 91.3954 22.9314 91.3557 22.8908C91.2706 22.8037 91.165 22.6458 91.1423 22.4238L93.1318 22.2199ZM88.6215 20.793L87.9218 20.8647L88.1257 22.8543L88.8254 22.7826L88.6215 20.793ZM82.7016 22.806L82.4572 23.0078L83.7304 24.5501L83.9749 24.3483L82.7016 22.806ZM82.252 23.2392C80.6345 25.762 80.0184 28.5914 80.3332 31.6634L82.3228 31.4595C82.0505 28.8021 82.5809 26.4316 83.9356 24.3187L82.252 23.2392ZM80.3332 31.6634C80.6203 34.4643 81.8726 36.814 84.0715 38.6919L85.3703 37.171C83.5493 35.6158 82.5557 33.732 82.3228 31.4595L80.3332 31.6634ZM84.2178 38.7956C86.7789 40.2868 89.3244 40.9398 91.8092 40.6852L91.6053 38.6956C89.629 38.8981 87.5039 38.3946 85.2241 37.0672L84.2178 38.7956ZM91.8092 40.6852L91.8967 40.6762L91.6928 38.6866L91.6053 38.6956L91.8092 40.6852ZM92.6242 40.2399C92.7503 40.0526 92.8494 39.797 92.9232 39.594C93.0099 39.3556 93.1092 39.0505 93.2209 38.6861C93.4448 37.9557 93.7321 36.9425 94.0868 35.6569L92.1588 35.125C91.8046 36.4091 91.5237 37.3987 91.3088 38.0999C91.201 38.4513 91.1132 38.7192 91.0436 38.9105C90.9612 39.1371 90.935 39.1678 90.9652 39.1229L92.6242 40.2399ZM93.7542 34.6155L93.5613 34.4584L92.2986 36.0095L92.4915 36.1665L93.7542 34.6155ZM92.828 34.2392L91.1661 34.4095L91.3699 36.3991L93.0319 36.2287L92.828 34.2392ZM91.1661 34.4095C90.1624 34.5123 89.2168 34.4156 88.2892 34.092L87.6304 35.9804C88.857 36.4083 90.0993 36.5293 91.3699 36.3991L91.1661 34.4095ZM88.2402 34.0763C86.1107 33.4542 84.7227 31.5896 84.335 27.8061L82.3454 28.01C82.7734 32.1864 84.433 35.0477 87.6794 35.9961L88.2402 34.0763ZM84.335 27.8061L84.2812 27.2813L82.2916 27.4852L82.3454 28.01L84.335 27.8061ZM84.2812 27.2813C84.1952 26.4427 84.2531 25.2962 84.5077 23.8162L82.5367 23.4771C82.265 25.0563 82.1803 26.3994 82.2916 27.4852L84.2812 27.2813ZM83.4202 22.6519L83.3328 22.6608L83.5367 24.6504L83.6241 24.6415L83.4202 22.6519ZM84.066 22.8801L83.9696 22.8016L82.7069 24.3526L82.8034 24.4311L84.066 22.8801Z" fill="black"/>
<path d="M105.167 16.2294C105.082 16.2062 104.442 16.7149 103.3 17.7245C100.042 21.3918 97.8551 25.3064 96.7078 29.505L96.2674 31.1166C95.514 33.8732 95.1079 36.3601 95.0605 38.5348L99.9805 38.8767C99.79 34.4037 100.093 30.7946 100.858 27.9956C102.318 27.0728 103.742 26.7786 105.1 27.1495L105.693 27.3117C106.457 27.5203 107.309 28.0722 108.261 28.9248C106.098 31.5014 104.626 34.2211 103.837 37.1049L103.559 38.1228C103.256 39.5667 103.192 40.3012 103.319 40.336L108.409 39.7216L108.494 39.7448C107.857 37.1552 107.891 34.6122 108.575 32.11L109.016 30.4984L109.633 28.5708C109.662 28.4648 110.548 27.9774 112.31 27.1146C111.287 26.1057 110.107 25.4188 108.772 25.0537L108.347 24.9378C105.972 24.2888 103.593 24.8235 101.252 26.5537L101.762 24.6876C102.353 22.5247 103.513 19.697 105.252 16.2526L105.167 16.2294Z" fill="white"/>
<path d="M103.3 17.7245L102.637 16.9754L102.592 17.0153L102.552 17.0603L103.3 17.7245ZM95.0605 38.5348L94.0607 38.5131L94.04 39.4663L94.9912 39.5324L95.0605 38.5348ZM99.9805 38.8767L99.9112 39.8743L101.027 39.9518L100.98 38.8341L99.9805 38.8767ZM100.858 27.9956L100.323 27.1503L99.9952 27.3576L99.8929 27.732L100.858 27.9956ZM108.261 28.9248L109.027 29.5677L109.649 28.826L108.928 28.1799L108.261 28.9248ZM103.559 38.1228L102.595 37.8591L102.587 37.8879L102.581 37.9171L103.559 38.1228ZM103.319 40.336L103.055 41.3006L103.244 41.3522L103.439 41.3288L103.319 40.336ZM108.409 39.7216L108.673 38.757L108.484 38.7054L108.289 38.7288L108.409 39.7216ZM108.494 39.7448L108.23 40.7094L109.871 41.1579L109.465 39.506L108.494 39.7448ZM109.016 30.4984L108.063 30.1932L108.057 30.2139L108.051 30.2348L109.016 30.4984ZM109.633 28.5708L110.586 28.876L110.592 28.8554L110.598 28.8344L109.633 28.5708ZM112.31 27.1146L112.75 28.0128L114.017 27.3927L113.012 26.4025L112.31 27.1146ZM101.252 26.5537L100.287 26.29L99.5269 29.0715L101.846 27.3579L101.252 26.5537ZM105.252 16.2526L106.144 16.7032L106.696 15.6106L105.515 15.2879L105.252 16.2526ZM105.43 15.2647C105.159 15.1905 104.936 15.2512 104.875 15.2684C104.783 15.2939 104.711 15.327 104.669 15.3477C104.582 15.3904 104.502 15.4409 104.443 15.4806C104.318 15.5642 104.169 15.6776 104.005 15.8084C103.673 16.0744 103.213 16.4667 102.637 16.9754L103.962 18.4737C104.529 17.9727 104.96 17.6059 105.254 17.3708C105.404 17.2512 105.502 17.1787 105.557 17.1418C105.587 17.1213 105.581 17.128 105.549 17.1434C105.535 17.1504 105.486 17.174 105.414 17.1941C105.372 17.2059 105.164 17.2654 104.903 17.194L105.43 15.2647ZM102.552 17.0603C99.2043 20.8286 96.9358 24.8772 95.7431 29.2414L97.6724 29.7686C98.7745 25.7357 100.879 21.955 104.047 18.3887L102.552 17.0603ZM95.7431 29.2414L95.3027 30.853L97.232 31.3802L97.6724 29.7686L95.7431 29.2414ZM95.3027 30.853C94.5343 33.6647 94.1104 36.2351 94.0607 38.5131L96.0603 38.5566C96.1054 36.4851 96.4937 34.0817 97.232 31.3802L95.3027 30.853ZM94.9912 39.5324L99.9112 39.8743L100.05 37.8791L95.1298 37.5372L94.9912 39.5324ZM100.98 38.8341C100.792 34.4186 101.094 30.9224 101.822 28.2592L99.8929 27.732C99.0909 30.6669 98.7885 34.3887 98.9814 38.9192L100.98 38.8341ZM101.392 28.8409C102.68 28.027 103.816 27.8354 104.836 28.1141L105.363 26.1848C103.669 25.7218 101.955 26.1187 100.323 27.1503L101.392 28.8409ZM104.836 28.1141L105.43 28.2763L105.957 26.3471L105.363 26.1848L104.836 28.1141ZM105.43 28.2763C105.968 28.4236 106.68 28.8521 107.593 29.6697L108.928 28.1799C107.937 27.2923 106.945 26.6171 105.957 26.3471L105.43 28.2763ZM107.495 28.2819C105.251 30.9548 103.704 33.8012 102.873 36.8413L104.802 37.3685C105.547 34.641 106.945 32.0481 109.027 29.5677L107.495 28.2819ZM102.873 36.8413L102.595 37.8591L104.524 38.3864L104.802 37.3685L102.873 36.8413ZM102.581 37.9171C102.426 38.6512 102.326 39.2353 102.283 39.6551C102.262 39.8574 102.249 40.0673 102.263 40.2526C102.269 40.3387 102.285 40.4849 102.344 40.6411C102.389 40.762 102.566 41.1667 103.055 41.3006L103.583 39.3713C104.041 39.4965 104.191 39.8707 104.217 39.9391C104.239 39.9974 104.248 40.0428 104.252 40.0645C104.256 40.0881 104.257 40.1025 104.257 40.1045C104.258 40.107 104.256 40.0887 104.258 40.042C104.26 39.9975 104.264 39.9377 104.272 39.8604C104.305 39.5433 104.389 39.0383 104.538 38.3284L102.581 37.9171ZM103.439 41.3288L108.529 40.7144L108.289 38.7288L103.199 39.3432L103.439 41.3288ZM108.146 40.6863L108.23 40.7094L108.758 38.7802L108.673 38.757L108.146 40.6863ZM109.465 39.506C108.868 37.0797 108.901 34.7096 109.54 32.3736L107.61 31.8464C106.881 34.5148 106.846 37.2307 107.523 39.9836L109.465 39.506ZM109.54 32.3736L109.98 30.7621L108.051 30.2348L107.61 31.8464L109.54 32.3736ZM109.968 30.8037L110.586 28.876L108.681 28.2655L108.063 30.1932L109.968 30.8037ZM110.598 28.8344C110.538 29.0544 110.417 29.187 110.398 29.2094C110.359 29.2532 110.328 29.2789 110.322 29.2838C110.308 29.295 110.315 29.2882 110.359 29.2597C110.442 29.2058 110.585 29.1219 110.801 29.0043C111.227 28.772 111.873 28.442 112.75 28.0128L111.871 26.2164C110.985 26.65 110.307 26.9951 109.843 27.2487C109.613 27.3741 109.419 27.4858 109.273 27.58C109.203 27.6256 109.122 27.681 109.047 27.7425C109.011 27.7726 108.956 27.8205 108.9 27.8834C108.863 27.925 108.733 28.0739 108.669 28.3072L110.598 28.8344ZM113.012 26.4025C111.872 25.278 110.543 24.5011 109.035 24.0891L108.508 26.0183C109.672 26.3365 110.702 26.9335 111.608 27.8267L113.012 26.4025ZM109.035 24.0891L108.611 23.9732L108.084 25.9024L108.508 26.0183L109.035 24.0891ZM108.611 23.9732C105.888 23.229 103.198 23.8724 100.657 25.7494L101.846 27.3579C103.989 25.7747 106.057 25.3485 108.084 25.9024L108.611 23.9732ZM102.216 26.8173L102.726 24.9512L100.797 24.424L100.287 26.29L102.216 26.8173ZM102.726 24.9512C103.292 22.8807 104.419 20.1206 106.144 16.7032L104.359 15.8019C102.606 19.2733 101.413 22.1688 100.797 24.424L102.726 24.9512ZM105.515 15.2879L105.43 15.2647L104.903 17.194L104.988 17.2172L105.515 15.2879Z" fill="black"/>
<path d="M125.046 23.0359L121.697 23.0037C121.106 25.7419 120.637 27.4047 120.292 27.992L120.367 28.0366C122.153 27.8633 123.466 27.1058 124.269 25.7418L124.314 25.666C124.715 24.9841 124.953 24.1036 125.046 23.0359ZM121.552 30.8768L117.563 29.8547C116.987 32.6531 115.653 35.8727 113.512 39.5099L110.982 43.6329L111.134 43.7222C114.715 41.7996 117.319 39.4553 118.947 36.6895L119.081 36.4622C120.486 34.0753 121.303 32.2098 121.552 30.8768Z" fill="white"/>
<path d="M125.046 23.0359L126.042 23.1225L126.135 22.0464L125.055 22.036L125.046 23.0359ZM121.697 23.0037L121.707 22.0037L120.892 21.9959L120.72 22.7925L121.697 23.0037ZM120.292 27.992L119.43 27.4847L118.923 28.3465L119.784 28.8538L120.292 27.992ZM120.367 28.0366L119.86 28.8984L120.14 29.0633L120.464 29.0319L120.367 28.0366ZM121.552 30.8768L122.535 31.0604L122.707 30.1404L121.801 29.9081L121.552 30.8768ZM117.563 29.8547L117.811 28.8859L116.795 28.6256L116.583 29.6531L117.563 29.8547ZM113.512 39.5099L114.364 40.0328L114.369 40.025L114.373 40.0172L113.512 39.5099ZM110.982 43.6329L110.13 43.1101L109.598 43.9781L110.475 44.4947L110.982 43.6329ZM111.134 43.7222L110.627 44.5839L111.111 44.8693L111.607 44.6032L111.134 43.7222ZM125.055 22.036L121.707 22.0037L121.688 24.0036L125.036 24.0359L125.055 22.036ZM120.72 22.7925C120.426 24.1522 120.166 25.23 119.94 26.0332C119.704 26.8702 119.529 27.316 119.43 27.4847L121.153 28.4993C121.4 28.0807 121.632 27.4014 121.865 26.5757C122.107 25.7162 122.377 24.5934 122.675 23.2148L120.72 22.7925ZM119.784 28.8538L119.86 28.8984L120.875 27.1748L120.799 27.1302L119.784 28.8538ZM120.464 29.0319C122.509 28.8334 124.138 27.9362 125.131 26.2491L123.407 25.2345C122.795 26.2754 121.797 26.8931 120.271 27.0413L120.464 29.0319ZM125.131 26.2491L125.175 26.1733L123.452 25.1588L123.407 25.2345L125.131 26.2491ZM125.175 26.1733C125.678 25.3201 125.941 24.2796 126.042 23.1225L124.049 22.9493C123.964 23.9276 123.752 24.6481 123.452 25.1588L125.175 26.1733ZM121.801 29.9081L117.811 28.8859L117.314 30.8234L121.304 31.8455L121.801 29.9081ZM116.583 29.6531C116.036 32.3092 114.756 35.4239 112.65 39.0026L114.373 40.0172C116.549 36.3214 117.937 32.997 118.542 30.0563L116.583 29.6531ZM112.659 38.987L110.13 43.1101L111.835 44.1558L114.364 40.0328L112.659 38.987ZM110.475 44.4947L110.627 44.5839L111.641 42.8604L111.49 42.7712L110.475 44.4947ZM111.607 44.6032C115.306 42.6167 118.066 40.1574 119.809 37.1968L118.085 36.1822C116.572 38.7533 114.123 40.9824 110.661 42.8411L111.607 44.6032ZM119.809 37.1968L119.943 36.9695L118.219 35.9549L118.085 36.1822L119.809 37.1968ZM119.943 36.9695C121.361 34.5603 122.253 32.5713 122.535 31.0604L120.569 30.6932C120.354 31.8482 119.611 33.5902 118.219 35.9549L119.943 36.9695Z" fill="black"/>
<defs>
<radialGradient id="paint0_radial_75_9" cx="0" cy="0" r="1" gradientUnits="userSpaceOnUse" gradientTransform="translate(79.9503 61.9323) rotate(47.8957) scale(135.789 259.726)">
<stop offset="0.177083" stop-color="#FDE1FC"/>
<stop offset="0.9999" stop-color="#FF6AC4"/>
</radialGradient>
<linearGradient id="paint1_linear_75_9" x1="83.5243" y1="65.5593" x2="135.735" y2="127.024" gradientUnits="userSpaceOnUse">
<stop offset="0.0579893" stop-color="#FDE1FC"/>
<stop offset="0.580074" stop-color="#FDCAF1"/>
<stop offset="0.975617" stop-color="#FF6AC4"/>
</linearGradient>
</defs>
</svg>
