<svg width="50" height="50" viewBox="0 0 50 50" fill="none" xmlns="http://www.w3.org/2000/svg">
<path d="M30.4935 29.9903C31.1552 29.9938 31.7911 29.7344 32.2617 29.2693C32.7323 28.8042 32.999 28.1713 33.0032 27.5097C33.0032 26.1194 31.8839 25 30.4935 25C29.1226 25 28.0129 26.1194 28.0129 27.5097C28.0129 28.8806 29.1323 29.9903 30.4935 29.9903V29.9903ZM-2.91898e-06 25C-4.334e-06 38.8113 11.1903 50 25 50C38.8097 50 50 38.8097 50 25C50 11.1887 38.8097 -8.34763e-07 25 -1.86492e-06C11.1903 -2.89508e-06 -1.50412e-06 11.1903 -2.91898e-06 25ZM13.3371 20.8468C14.2839 20.8468 15.121 21.2403 15.7371 21.8548C17.9952 20.2919 21.0387 19.2839 24.4161 19.1726L22.6629 11.279L17.0774 12.5387C17.0774 13.9097 15.9581 15.0194 14.5984 15.0194C13.2065 15.0194 12.0887 13.8806 12.0887 12.5097C12.0887 11.1387 13.2081 10 14.5984 10C15.5758 10 16.4129 10.5855 16.8258 11.3919L22.9952 10.021C23.2984 9.94032 23.6097 10.1629 23.6903 10.4645L25.6161 19.1742C28.9629 19.3161 31.9774 20.3129 34.2355 21.8758C34.5494 21.5486 34.9266 21.2887 35.3442 21.1121C35.7619 20.9354 36.2111 20.8457 36.6645 20.8484C40.1823 20.8484 41.3323 25.5758 38.1161 27.179C38.2296 27.6923 38.2869 28.2163 38.2871 28.7419C38.2871 34.0435 32.3194 38.3387 24.9806 38.3387C17.6113 38.3387 11.6435 34.0435 11.6435 28.7419C11.6435 28.2081 11.7048 27.6532 11.8355 27.1484C8.68064 25.5355 9.84032 20.8484 13.3371 20.8484L13.3371 20.8468ZM20.2823 32.5613C22.1161 34.3952 27.9532 34.3661 29.7177 32.5613C29.8313 32.4552 29.9809 32.3961 30.1363 32.3961C30.2917 32.3961 30.4413 32.4552 30.5548 32.5613C30.8064 32.8129 30.8064 33.2065 30.5548 33.429C28.2564 35.7274 21.7548 35.7274 19.4452 33.429C19.1935 33.2064 19.1935 32.8145 19.4452 32.5613C19.5587 32.4552 19.7083 32.3961 19.8637 32.3961C20.0191 32.3961 20.1687 32.4552 20.2823 32.5613V32.5613ZM19.5064 25C20.8774 25 21.9871 26.1194 21.9871 27.5097C21.9845 28.0036 21.8355 28.4857 21.5589 28.8949C21.2823 29.3042 20.8905 29.6221 20.4331 29.8087C19.9757 29.9952 19.4733 30.0418 18.9894 29.9427C18.5055 29.8436 18.0619 29.6032 17.7146 29.2519C17.3674 28.9006 17.1322 28.4542 17.0387 27.9692C16.9452 27.4842 16.9977 26.9823 17.1895 26.5271C17.3814 26.0719 17.7039 25.6839 18.1163 25.412C18.5287 25.1402 19.0125 24.9968 19.5064 25V25Z" fill="#F5F5F5"/>
</svg>
