<svg width="50" height="50" viewBox="0 0 50 50" fill="none" xmlns="http://www.w3.org/2000/svg">
<path d="M38.4378 3.73931C50.0004 11.2187 53.4379 26.4891 46.2504 38.3315C39.0628 49.8622 23.4377 53.6019 11.8751 46.1225L10.9376 45.4992L1.56251 47.9924L4.06253 38.6431L3.43753 37.7082C1.25001 33.6569 2.92283e-07 29.2939 3.53256e-07 24.9309C4.18585e-07 20.2563 1.25001 15.5817 3.75003 11.5303C11.2501 -0.000386417 26.5627 -3.42844 38.4378 3.73931V3.73931ZM14.3751 10.2838C12.5001 11.5303 11.2501 13.0885 10.9376 15.27C10.9376 16.5166 10.3126 18.0748 12.8126 24.3076C15.3126 29.6055 19.3751 33.9685 24.0627 37.0849C26.2502 38.9548 29.0627 39.8897 31.8752 40.2013C34.3753 40.2013 36.5628 39.2664 38.1253 37.7082C38.7503 37.0849 39.0628 36.4616 39.0628 35.8384L39.0628 34.2802C39.0628 33.6569 39.0628 33.0336 37.8128 32.7219C36.2503 32.0987 32.5002 30.5405 32.1877 30.5405C31.8752 30.2288 31.2502 30.2288 30.9377 30.5405C30.3127 30.2288 29.6877 30.5405 29.3752 30.8521C29.0627 31.1637 28.4377 31.4754 28.1252 31.787C27.8127 32.4103 27.1877 32.7219 26.5627 32.4103C24.6877 31.1637 22.8127 29.6055 21.2502 28.0473C19.6877 26.1775 18.4376 24.3076 17.5001 22.1261C17.1876 21.5029 17.1876 20.8796 17.8126 20.5679C18.4376 20.2563 20.0002 18.6981 20.6252 18.0748C21.2502 17.4515 21.2502 17.1399 20.9377 16.5166L18.4376 11.5303C18.1251 10.9071 17.8126 10.2838 17.5001 9.97213C16.5626 9.66049 15.3126 9.66049 14.3751 10.2838V10.2838Z" fill="#F5F5F5"/>
</svg>
